# Blender 4.1.1
# www.blender.org
mtllib Baloon.mtl
o 円錐
v 0.020407 -1.255990 -0.207192
v 0.213173 -1.255578 -0.064665
v 0.132070 -1.255975 0.160928
v -0.020407 -1.255990 0.207192
v -0.213173 -1.255578 0.064665
v -0.132070 -1.255975 -0.160928
v 0.000000 -0.975046 0.000000
v 0.000000 -0.991546 0.000000
v 0.723607 0.007208 0.525725
v -0.276388 0.007208 0.850649
v -0.894426 0.007212 0.000000
v -0.276388 0.007208 -0.850649
v 0.723607 0.007208 -0.525725
v 0.276388 0.901648 0.850649
v -0.723607 0.901647 0.525725
v -0.723607 0.901647 -0.525725
v 0.276388 0.901648 -0.850649
v 0.894426 0.901644 0.000000
v 0.000000 1.454428 0.000000
v -0.162456 -0.583596 0.499995
v 0.425323 -0.583596 0.309011
v 0.262869 -0.071310 0.809012
v 0.850648 -0.071308 0.000000
v 0.425323 -0.583596 -0.309011
v -0.525730 -0.583593 0.000000
v -0.688189 -0.071308 0.499997
v -0.162456 -0.583596 -0.499995
v -0.688189 -0.071308 -0.499997
v 0.262869 -0.071310 -0.809012
v 0.951058 0.454428 0.309013
v 0.951058 0.454428 -0.309013
v 0.000000 0.454428 1.000000
v 0.587786 0.454428 0.809017
v -0.951058 0.454428 0.309013
v -0.587786 0.454428 0.809017
v -0.587786 0.454428 -0.809017
v -0.951058 0.454428 -0.309013
v 0.587786 0.454428 -0.809017
v 0.000000 0.454428 -1.000000
v 0.688189 0.980164 0.499997
v -0.262869 0.980165 0.809012
v -0.850648 0.980164 0.000000
v -0.262869 0.980165 -0.809012
v 0.688189 0.980164 -0.499997
v 0.162456 1.305082 0.499995
v 0.525730 1.305079 0.000000
v -0.425323 1.305082 0.309011
v -0.425323 1.305082 -0.309011
v 0.162456 1.305082 -0.499995
vn 0.5008 0.5370 -0.6789
vn 0.7935 0.5370 0.2862
vn 0.2395 0.5649 0.7896
vn -0.5008 0.5370 0.6789
vn -0.7935 0.5370 -0.2862
vn -0.2395 0.5649 -0.7896
vn -0.0000 -1.0000 -0.0000
vn 0.2139 -0.7217 0.6583
vn 0.8147 -0.5115 0.2733
vn -0.5600 -0.7217 0.4069
vn -0.5600 -0.7217 -0.4069
vn 0.2139 -0.7217 -0.6583
vn 0.9050 -0.3304 0.2680
vn 0.0247 -0.3304 0.9435
vn -0.8897 -0.3304 0.3151
vn -0.5746 -0.3304 -0.7488
vn 0.5346 -0.3304 -0.7779
vn 0.8026 -0.1256 0.5831
vn -0.3066 -0.1256 0.9435
vn -0.9921 -0.1256 -0.0000
vn -0.3066 -0.1256 -0.9435
vn 0.8026 -0.1256 -0.5831
vn 0.4089 0.6617 0.6284
vn -0.4713 0.6617 0.5831
vn -0.7002 0.6617 -0.2680
vn 0.0385 0.6617 -0.7488
vn 0.7240 0.6617 -0.1947
vn 0.2680 0.9435 -0.1947
vn 0.4911 0.7947 -0.3568
vn 0.4089 0.6617 -0.6284
vn -0.1024 0.9435 -0.3151
vn -0.1876 0.7947 -0.5773
vn -0.4713 0.6617 -0.5831
vn -0.3313 0.9435 -0.0000
vn -0.6071 0.7947 -0.0000
vn -0.7002 0.6617 0.2680
vn -0.1024 0.9435 0.3151
vn -0.1876 0.7947 0.5773
vn 0.0385 0.6617 0.7488
vn 0.2680 0.9435 0.1947
vn 0.4911 0.7947 0.3568
vn 0.7240 0.6617 0.1947
vn 0.8897 0.3304 -0.3151
vn 0.7947 0.1876 -0.5773
vn 0.5746 0.3304 -0.7488
vn -0.0247 0.3304 -0.9435
vn -0.3035 0.1876 -0.9342
vn -0.5346 0.3304 -0.7779
vn -0.9050 0.3304 -0.2680
vn -0.9822 0.1876 -0.0000
vn -0.9050 0.3304 0.2680
vn -0.5346 0.3304 0.7779
vn -0.3035 0.1876 0.9342
vn -0.0247 0.3304 0.9435
vn 0.5746 0.3304 0.7488
vn 0.7947 0.1876 0.5773
vn 0.8897 0.3304 0.3151
vn 0.3066 0.1256 -0.9435
vn 0.3035 -0.1876 -0.9342
vn 0.0247 -0.3304 -0.9435
vn -0.8026 0.1256 -0.5831
vn -0.7947 -0.1876 -0.5773
vn -0.8897 -0.3304 -0.3151
vn -0.8026 0.1256 0.5831
vn -0.7947 -0.1876 0.5773
vn -0.5746 -0.3304 0.7488
vn 0.3066 0.1256 0.9435
vn 0.3035 -0.1876 0.9342
vn 0.5346 -0.3304 0.7779
vn 0.9921 0.1256 -0.0000
vn 0.9822 -0.1876 -0.0000
vn 0.9050 -0.3304 -0.2680
vn 0.5116 -0.5115 -0.6903
vn 0.2378 -0.6388 -0.7317
vn -0.0081 -0.5115 -0.8592
vn -0.4985 -0.5115 -0.6999
vn -0.6224 -0.6388 -0.4522
vn -0.8197 -0.5115 -0.2578
vn -0.8197 -0.5115 0.2578
vn -0.6224 -0.6388 0.4522
vn -0.4985 -0.5115 0.6999
vn 0.8147 -0.5115 -0.2733
vn 0.7694 -0.6388 -0.0000
vn 0.6922 -0.7217 -0.0000
vn -0.0081 -0.5115 0.8592
vn 0.2378 -0.6388 0.7317
vn 0.5116 -0.5115 0.6903
vt 0.272961 0.483127
vt 0.250000 0.250000
vt 0.457104 0.312825
vt 0.398610 0.068918
vt 0.227039 0.016873
vt 0.042896 0.187175
vt 0.101390 0.431082
vt 0.727039 0.016873
vt 0.542896 0.187175
vt 0.601390 0.431082
vt 0.772961 0.483127
vt 0.957104 0.312825
vt 0.898610 0.068918
vt 0.181819 0.000000
vt 0.227273 0.078731
vt 0.136365 0.078731
vt 0.272728 0.157461
vt 0.318182 0.078731
vt 0.363637 0.157461
vt 0.909091 0.000000
vt 0.954545 0.078731
vt 0.863636 0.078731
vt 0.727273 0.000000
vt 0.772727 0.078731
vt 0.681818 0.078731
vt 0.545455 0.000000
vt 0.590909 0.078731
vt 0.500000 0.078731
vt 0.318182 0.236191
vt 0.090910 0.157461
vt 0.181819 0.157461
vt 0.136365 0.236191
vt 0.818182 0.157461
vt 0.909091 0.157461
vt 0.863636 0.236191
vt 0.636364 0.157461
vt 0.727273 0.157461
vt 0.681818 0.236191
vt 0.454546 0.157461
vt 0.545455 0.157461
vt 0.500000 0.236191
vt 0.227273 0.236191
vt 0.045455 0.236191
vt 0.772727 0.236191
vt 0.590909 0.236191
vt 0.409092 0.236191
vt 0.181819 0.314921
vt 0.272728 0.314921
vt 0.227273 0.393651
vt 0.000000 0.314921
vt 0.090910 0.314921
vt 0.045455 0.393651
vt 0.727273 0.314921
vt 0.818182 0.314921
vt 0.772727 0.393651
vt 0.545455 0.314921
vt 0.636364 0.314921
vt 0.590909 0.393651
vt 0.363637 0.314921
vt 0.454546 0.314921
vt 0.409092 0.393651
vt 0.500000 0.393651
vt 0.454546 0.472382
vt 0.681818 0.393651
vt 0.636364 0.472382
vt 0.863636 0.393651
vt 0.818182 0.472382
vt 0.909091 0.314921
vt 0.136365 0.393651
vt 0.090910 0.472382
vt 0.318182 0.393651
vt 0.272728 0.472382
vt 0.954545 0.236191
vt 1.000000 0.157461
vt 0.409092 0.078731
vt 0.363637 0.000000
s 0
f 1/1/1 7/2/1 2/3/1
f 2/3/2 7/2/2 3/4/2
f 3/4/3 7/2/3 4/5/3
f 4/5/4 7/2/4 5/6/4
f 5/6/5 7/2/5 6/7/5
f 6/7/6 7/2/6 1/1/6
f 4/8/7 5/9/7 6/10/7 1/11/7 2/12/7 3/13/7
f 8/14/8 21/15/8 20/16/8
f 9/17/9 21/18/9 23/19/9
f 8/20/10 20/21/10 25/22/10
f 8/23/11 25/24/11 27/25/11
f 8/26/12 27/27/12 24/28/12
f 9/17/13 23/19/13 30/29/13
f 10/30/14 22/31/14 32/32/14
f 11/33/15 26/34/15 34/35/15
f 12/36/16 28/37/16 36/38/16
f 13/39/17 29/40/17 38/41/17
f 9/17/18 30/29/18 33/42/18
f 10/30/19 32/32/19 35/43/19
f 11/33/20 34/35/20 37/44/20
f 12/36/21 36/38/21 39/45/21
f 13/39/22 38/41/22 31/46/22
f 14/47/23 40/48/23 45/49/23
f 15/50/24 41/51/24 47/52/24
f 16/53/25 42/54/25 48/55/25
f 17/56/26 43/57/26 49/58/26
f 18/59/27 44/60/27 46/61/27
f 46/61/28 49/62/28 19/63/28
f 46/61/29 44/60/29 49/62/29
f 44/60/30 17/56/30 49/62/30
f 49/58/31 48/64/31 19/65/31
f 49/58/32 43/57/32 48/64/32
f 43/57/33 16/53/33 48/64/33
f 48/55/34 47/66/34 19/67/34
f 48/55/35 42/54/35 47/66/35
f 42/54/36 15/68/36 47/66/36
f 47/52/37 45/69/37 19/70/37
f 47/52/38 41/51/38 45/69/38
f 41/51/39 14/47/39 45/69/39
f 45/49/40 46/71/40 19/72/40
f 45/49/41 40/48/41 46/71/41
f 40/48/42 18/59/42 46/71/42
f 31/46/43 44/60/43 18/59/43
f 31/46/44 38/41/44 44/60/44
f 38/41/45 17/56/45 44/60/45
f 39/45/46 43/57/46 17/56/46
f 39/45/47 36/38/47 43/57/47
f 36/38/48 16/53/48 43/57/48
f 37/44/49 42/54/49 16/53/49
f 37/44/50 34/35/50 42/54/50
f 34/35/51 15/68/51 42/54/51
f 35/43/52 41/51/52 15/50/52
f 35/43/53 32/32/53 41/51/53
f 32/32/54 14/47/54 41/51/54
f 33/42/55 40/48/55 14/47/55
f 33/42/56 30/29/56 40/48/56
f 30/29/57 18/59/57 40/48/57
f 38/41/58 39/45/58 17/56/58
f 38/41/59 29/40/59 39/45/59
f 29/40/60 12/36/60 39/45/60
f 36/38/61 37/44/61 16/53/61
f 36/38/62 28/37/62 37/44/62
f 28/37/63 11/33/63 37/44/63
f 34/35/64 35/73/64 15/68/64
f 34/35/65 26/34/65 35/73/65
f 26/34/66 10/74/66 35/73/66
f 32/32/67 33/42/67 14/47/67
f 32/32/68 22/31/68 33/42/68
f 22/31/69 9/17/69 33/42/69
f 30/29/70 31/46/70 18/59/70
f 30/29/71 23/19/71 31/46/71
f 23/19/72 13/39/72 31/46/72
f 24/28/73 29/40/73 13/39/73
f 24/28/74 27/27/74 29/40/74
f 27/27/75 12/36/75 29/40/75
f 27/25/76 28/37/76 12/36/76
f 27/25/77 25/24/77 28/37/77
f 25/24/78 11/33/78 28/37/78
f 25/22/79 26/34/79 11/33/79
f 25/22/80 20/21/80 26/34/80
f 20/21/81 10/74/81 26/34/81
f 23/19/82 24/75/82 13/39/82
f 23/19/83 21/18/83 24/75/83
f 21/18/84 8/76/84 24/75/84
f 20/16/85 22/31/85 10/30/85
f 20/16/86 21/15/86 22/31/86
f 21/15/87 9/17/87 22/31/87
