{
	"asset":{
		"generator":"Khronos glTF Blender I/O v4.1.63",
		"version":"2.0"
	},
	"scene":0,
	"scenes":[
		{
			"name":"Scene",
			"nodes":[
				0
			]
		}
	],
	"nodes":[
		{
			"mesh":0,
			"name":"TsukumoSword"
		}
	],
	"meshes":[
		{
			"name":"\u7acb\u65b9\u4f53.023",
			"primitives":[
				{
					"attributes":{
						"POSITION":0,
						"NORMAL":1,
						"TEXCOORD_0":2
					},
					"indices":3
				}
			]
		}
	],
	"accessors":[
		{
			"bufferView":0,
			"componentType":5126,
			"count":2573,
			"max":[
				0.9640599489212036,
				3.8266451358795166,
				0.8132615685462952
			],
			"min":[
				-0.9640599489212036,
				0.0789993405342102,
				-0.6847317218780518
			],
			"type":"VEC3"
		},
		{
			"bufferView":1,
			"componentType":5126,
			"count":2573,
			"type":"VEC3"
		},
		{
			"bufferView":2,
			"componentType":5126,
			"count":2573,
			"type":"VEC2"
		},
		{
			"bufferView":3,
			"componentType":5123,
			"count":11046,
			"type":"SCALAR"
		}
	],
	"bufferViews":[
		{
			"buffer":0,
			"byteLength":30876,
			"byteOffset":0,
			"target":34962
		},
		{
			"buffer":0,
			"byteLength":30876,
			"byteOffset":30876,
			"target":34962
		},
		{
			"buffer":0,
			"byteLength":20584,
			"byteOffset":61752,
			"target":34962
		},
		{
			"buffer":0,
			"byteLength":22092,
			"byteOffset":82336,
			"target":34963
		}
	],
	"buffers":[
		{
			"byteLength":104428,
			"uri":"TsukumoSword.bin"
		}
	]
}
