{
	"asset":{
		"generator":"Khronos glTF Blender I/O v4.1.63",
		"version":"2.0"
	},
	"scene":0,
	"scenes":[
		{
			"name":"Scene",
			"nodes":[
				0,
				7
			]
		}
	],
	"nodes":[
		{
			"mesh":0,
			"name":"\u5186\u67f1.001",
			"rotation":[
				0,
				0,
				-0.7071068286895752,
				0.7071068286895752
			],
			"scale":[
				0.6546649932861328,
				0.12308681011199951,
				0.6546649932861328
			],
			"translation":[
				-1.1337002515792847,
				0.6717100143432617,
				0
			]
		},
		{
			"name":"\u30dc\u30fc\u30f3.002",
			"translation":[
				0,
				0.53314208984375,
				0
			]
		},
		{
			"children":[
				1
			],
			"name":"\u30dc\u30fc\u30f3.001",
			"translation":[
				0,
				1,
				0
			]
		},
		{
			"children":[
				2
			],
			"name":"\u30dc\u30fc\u30f3"
		},
		{
			"name":"neutral_bone",
			"rotation":[
				-0.7071067690849304,
				0,
				0,
				0.7071067690849304
			]
		},
		{
			"mesh":1,
			"name":"\u5186\u67f1",
			"skin":0
		},
		{
			"mesh":2,
			"name":"\u5186\u67f1.002",
			"skin":0
		},
		{
			"children":[
				5,
				6,
				3,
				4
			],
			"name":"\u30a2\u30fc\u30de\u30c1\u30e5\u30a2",
			"translation":[
				0,
				0.27819207310676575,
				0
			]
		}
	],
	"animations":[
		{
			"channels":[
				{
					"sampler":0,
					"target":{
						"node":3,
						"path":"translation"
					}
				},
				{
					"sampler":1,
					"target":{
						"node":3,
						"path":"rotation"
					}
				},
				{
					"sampler":2,
					"target":{
						"node":3,
						"path":"scale"
					}
				},
				{
					"sampler":3,
					"target":{
						"node":2,
						"path":"translation"
					}
				},
				{
					"sampler":4,
					"target":{
						"node":2,
						"path":"rotation"
					}
				},
				{
					"sampler":5,
					"target":{
						"node":2,
						"path":"scale"
					}
				},
				{
					"sampler":6,
					"target":{
						"node":1,
						"path":"translation"
					}
				},
				{
					"sampler":7,
					"target":{
						"node":1,
						"path":"rotation"
					}
				},
				{
					"sampler":8,
					"target":{
						"node":1,
						"path":"scale"
					}
				},
				{
					"sampler":9,
					"target":{
						"node":7,
						"path":"translation"
					}
				},
				{
					"sampler":10,
					"target":{
						"node":7,
						"path":"rotation"
					}
				},
				{
					"sampler":11,
					"target":{
						"node":7,
						"path":"scale"
					}
				}
			],
			"name":"fire",
			"samplers":[
				{
					"input":17,
					"interpolation":"STEP",
					"output":18
				},
				{
					"input":17,
					"interpolation":"STEP",
					"output":19
				},
				{
					"input":17,
					"interpolation":"STEP",
					"output":20
				},
				{
					"input":17,
					"interpolation":"STEP",
					"output":21
				},
				{
					"input":17,
					"interpolation":"STEP",
					"output":22
				},
				{
					"input":17,
					"interpolation":"STEP",
					"output":23
				},
				{
					"input":17,
					"interpolation":"STEP",
					"output":24
				},
				{
					"input":17,
					"interpolation":"STEP",
					"output":25
				},
				{
					"input":17,
					"interpolation":"STEP",
					"output":26
				},
				{
					"input":17,
					"interpolation":"STEP",
					"output":27
				},
				{
					"input":17,
					"interpolation":"STEP",
					"output":28
				},
				{
					"input":29,
					"interpolation":"LINEAR",
					"output":30
				}
			]
		},
		{
			"channels":[
				{
					"sampler":0,
					"target":{
						"node":3,
						"path":"translation"
					}
				},
				{
					"sampler":1,
					"target":{
						"node":3,
						"path":"rotation"
					}
				},
				{
					"sampler":2,
					"target":{
						"node":3,
						"path":"scale"
					}
				},
				{
					"sampler":3,
					"target":{
						"node":2,
						"path":"translation"
					}
				},
				{
					"sampler":4,
					"target":{
						"node":2,
						"path":"rotation"
					}
				},
				{
					"sampler":5,
					"target":{
						"node":2,
						"path":"scale"
					}
				},
				{
					"sampler":6,
					"target":{
						"node":1,
						"path":"translation"
					}
				},
				{
					"sampler":7,
					"target":{
						"node":1,
						"path":"rotation"
					}
				},
				{
					"sampler":8,
					"target":{
						"node":1,
						"path":"scale"
					}
				},
				{
					"sampler":9,
					"target":{
						"node":7,
						"path":"translation"
					}
				},
				{
					"sampler":10,
					"target":{
						"node":7,
						"path":"scale"
					}
				}
			],
			"name":"stay",
			"samplers":[
				{
					"input":31,
					"interpolation":"STEP",
					"output":32
				},
				{
					"input":31,
					"interpolation":"STEP",
					"output":33
				},
				{
					"input":31,
					"interpolation":"STEP",
					"output":34
				},
				{
					"input":31,
					"interpolation":"STEP",
					"output":35
				},
				{
					"input":31,
					"interpolation":"STEP",
					"output":36
				},
				{
					"input":31,
					"interpolation":"STEP",
					"output":37
				},
				{
					"input":31,
					"interpolation":"STEP",
					"output":38
				},
				{
					"input":31,
					"interpolation":"STEP",
					"output":39
				},
				{
					"input":31,
					"interpolation":"STEP",
					"output":40
				},
				{
					"input":31,
					"interpolation":"STEP",
					"output":41
				},
				{
					"input":42,
					"interpolation":"LINEAR",
					"output":43
				}
			]
		}
	],
	"materials":[
		{
			"doubleSided":true,
			"name":"\u30de\u30c6\u30ea\u30a2\u30eb.001",
			"pbrMetallicRoughness":{
				"baseColorTexture":{
					"index":0
				},
				"metallicFactor":0,
				"roughnessFactor":0.5
			}
		},
		{
			"doubleSided":true,
			"name":"\u30de\u30c6\u30ea\u30a2\u30eb",
			"pbrMetallicRoughness":{
				"baseColorTexture":{
					"index":1
				},
				"metallicFactor":0,
				"roughnessFactor":0.5
			}
		}
	],
	"meshes":[
		{
			"name":"\u5186\u67f1.001",
			"primitives":[
				{
					"attributes":{
						"POSITION":0,
						"NORMAL":1,
						"TEXCOORD_0":2
					},
					"indices":3,
					"material":0
				}
			]
		},
		{
			"name":"\u5186\u67f1",
			"primitives":[
				{
					"attributes":{
						"POSITION":4,
						"NORMAL":5,
						"TEXCOORD_0":6,
						"JOINTS_0":7,
						"WEIGHTS_0":8
					},
					"indices":9,
					"material":1
				}
			]
		},
		{
			"name":"\u5186\u67f1.004",
			"primitives":[
				{
					"attributes":{
						"POSITION":11,
						"NORMAL":12,
						"TEXCOORD_0":13,
						"JOINTS_0":14,
						"WEIGHTS_0":15
					},
					"indices":16
				}
			]
		}
	],
	"textures":[
		{
			"sampler":0,
			"source":0
		},
		{
			"sampler":0,
			"source":1
		}
	],
	"images":[
		{
			"mimeType":"image/png",
			"name":"cannonWheel",
			"uri":"cannonWheel.png"
		},
		{
			"mimeType":"image/png",
			"name":"cannon",
			"uri":"cannon.png"
		}
	],
	"skins":[
		{
			"inverseBindMatrices":10,
			"joints":[
				3,
				2,
				1,
				4
			],
			"name":"\u30a2\u30fc\u30de\u30c1\u30e5\u30a2"
		}
	],
	"accessors":[
		{
			"bufferView":0,
			"componentType":5126,
			"count":768,
			"max":[
				1.0000003576278687,
				19.42115020751953,
				1.000000238418579
			],
			"min":[
				-1.0000001192092896,
				-1,
				-1.000000238418579
			],
			"type":"VEC3"
		},
		{
			"bufferView":1,
			"componentType":5126,
			"count":768,
			"type":"VEC3"
		},
		{
			"bufferView":2,
			"componentType":5126,
			"count":768,
			"type":"VEC2"
		},
		{
			"bufferView":3,
			"componentType":5123,
			"count":1416,
			"type":"SCALAR"
		},
		{
			"bufferView":4,
			"componentType":5126,
			"count":430,
			"max":[
				1.05900239944458,
				2.7900147438049316,
				1.0590022802352905
			],
			"min":[
				-1.0590022802352905,
				0.05679821968078613,
				-1.05900239944458
			],
			"type":"VEC3"
		},
		{
			"bufferView":5,
			"componentType":5126,
			"count":430,
			"type":"VEC3"
		},
		{
			"bufferView":6,
			"componentType":5126,
			"count":430,
			"type":"VEC2"
		},
		{
			"bufferView":7,
			"componentType":5121,
			"count":430,
			"type":"VEC4"
		},
		{
			"bufferView":8,
			"componentType":5126,
			"count":430,
			"type":"VEC4"
		},
		{
			"bufferView":9,
			"componentType":5123,
			"count":1536,
			"type":"SCALAR"
		},
		{
			"bufferView":10,
			"componentType":5126,
			"count":4,
			"type":"MAT4"
		},
		{
			"bufferView":11,
			"componentType":5126,
			"count":507,
			"max":[
				0.02487913891673088,
				3.628812313079834,
				-0.5393638014793396
			],
			"min":[
				-0.02487913891673088,
				2.589754581451416,
				-1.5035388469696045
			],
			"type":"VEC3"
		},
		{
			"bufferView":12,
			"componentType":5126,
			"count":507,
			"type":"VEC3"
		},
		{
			"bufferView":13,
			"componentType":5126,
			"count":507,
			"type":"VEC2"
		},
		{
			"bufferView":14,
			"componentType":5121,
			"count":507,
			"type":"VEC4"
		},
		{
			"bufferView":15,
			"componentType":5126,
			"count":507,
			"type":"VEC4"
		},
		{
			"bufferView":16,
			"componentType":5123,
			"count":2484,
			"type":"SCALAR"
		},
		{
			"bufferView":17,
			"componentType":5126,
			"count":2,
			"max":[
				1.3333333333333333
			],
			"min":[
				0
			],
			"type":"SCALAR"
		},
		{
			"bufferView":18,
			"componentType":5126,
			"count":2,
			"type":"VEC3"
		},
		{
			"bufferView":19,
			"componentType":5126,
			"count":2,
			"type":"VEC4"
		},
		{
			"bufferView":20,
			"componentType":5126,
			"count":2,
			"type":"VEC3"
		},
		{
			"bufferView":21,
			"componentType":5126,
			"count":2,
			"type":"VEC3"
		},
		{
			"bufferView":22,
			"componentType":5126,
			"count":2,
			"type":"VEC4"
		},
		{
			"bufferView":23,
			"componentType":5126,
			"count":2,
			"type":"VEC3"
		},
		{
			"bufferView":24,
			"componentType":5126,
			"count":2,
			"type":"VEC3"
		},
		{
			"bufferView":25,
			"componentType":5126,
			"count":2,
			"type":"VEC4"
		},
		{
			"bufferView":26,
			"componentType":5126,
			"count":2,
			"type":"VEC3"
		},
		{
			"bufferView":27,
			"componentType":5126,
			"count":2,
			"type":"VEC3"
		},
		{
			"bufferView":28,
			"componentType":5126,
			"count":2,
			"type":"VEC4"
		},
		{
			"bufferView":29,
			"componentType":5126,
			"count":81,
			"max":[
				1.3333333333333333
			],
			"min":[
				0
			],
			"type":"SCALAR"
		},
		{
			"bufferView":30,
			"componentType":5126,
			"count":81,
			"type":"VEC3"
		},
		{
			"bufferView":31,
			"componentType":5126,
			"count":2,
			"max":[
				0.6666666666666666
			],
			"min":[
				0
			],
			"type":"SCALAR"
		},
		{
			"bufferView":32,
			"componentType":5126,
			"count":2,
			"type":"VEC3"
		},
		{
			"bufferView":33,
			"componentType":5126,
			"count":2,
			"type":"VEC4"
		},
		{
			"bufferView":34,
			"componentType":5126,
			"count":2,
			"type":"VEC3"
		},
		{
			"bufferView":35,
			"componentType":5126,
			"count":2,
			"type":"VEC3"
		},
		{
			"bufferView":36,
			"componentType":5126,
			"count":2,
			"type":"VEC4"
		},
		{
			"bufferView":37,
			"componentType":5126,
			"count":2,
			"type":"VEC3"
		},
		{
			"bufferView":38,
			"componentType":5126,
			"count":2,
			"type":"VEC3"
		},
		{
			"bufferView":39,
			"componentType":5126,
			"count":2,
			"type":"VEC4"
		},
		{
			"bufferView":40,
			"componentType":5126,
			"count":2,
			"type":"VEC3"
		},
		{
			"bufferView":41,
			"componentType":5126,
			"count":2,
			"type":"VEC3"
		},
		{
			"bufferView":42,
			"componentType":5126,
			"count":41,
			"max":[
				0.6666666666666666
			],
			"min":[
				0
			],
			"type":"SCALAR"
		},
		{
			"bufferView":43,
			"componentType":5126,
			"count":41,
			"type":"VEC3"
		}
	],
	"bufferViews":[
		{
			"buffer":0,
			"byteLength":9216,
			"byteOffset":0,
			"target":34962
		},
		{
			"buffer":0,
			"byteLength":9216,
			"byteOffset":9216,
			"target":34962
		},
		{
			"buffer":0,
			"byteLength":6144,
			"byteOffset":18432,
			"target":34962
		},
		{
			"buffer":0,
			"byteLength":2832,
			"byteOffset":24576,
			"target":34963
		},
		{
			"buffer":0,
			"byteLength":5160,
			"byteOffset":27408,
			"target":34962
		},
		{
			"buffer":0,
			"byteLength":5160,
			"byteOffset":32568,
			"target":34962
		},
		{
			"buffer":0,
			"byteLength":3440,
			"byteOffset":37728,
			"target":34962
		},
		{
			"buffer":0,
			"byteLength":1720,
			"byteOffset":41168,
			"target":34962
		},
		{
			"buffer":0,
			"byteLength":6880,
			"byteOffset":42888,
			"target":34962
		},
		{
			"buffer":0,
			"byteLength":3072,
			"byteOffset":49768,
			"target":34963
		},
		{
			"buffer":0,
			"byteLength":256,
			"byteOffset":52840
		},
		{
			"buffer":0,
			"byteLength":6084,
			"byteOffset":53096,
			"target":34962
		},
		{
			"buffer":0,
			"byteLength":6084,
			"byteOffset":59180,
			"target":34962
		},
		{
			"buffer":0,
			"byteLength":4056,
			"byteOffset":65264,
			"target":34962
		},
		{
			"buffer":0,
			"byteLength":2028,
			"byteOffset":69320,
			"target":34962
		},
		{
			"buffer":0,
			"byteLength":8112,
			"byteOffset":71348,
			"target":34962
		},
		{
			"buffer":0,
			"byteLength":4968,
			"byteOffset":79460,
			"target":34963
		},
		{
			"buffer":0,
			"byteLength":8,
			"byteOffset":84428
		},
		{
			"buffer":0,
			"byteLength":24,
			"byteOffset":84436
		},
		{
			"buffer":0,
			"byteLength":32,
			"byteOffset":84460
		},
		{
			"buffer":0,
			"byteLength":24,
			"byteOffset":84492
		},
		{
			"buffer":0,
			"byteLength":24,
			"byteOffset":84516
		},
		{
			"buffer":0,
			"byteLength":32,
			"byteOffset":84540
		},
		{
			"buffer":0,
			"byteLength":24,
			"byteOffset":84572
		},
		{
			"buffer":0,
			"byteLength":24,
			"byteOffset":84596
		},
		{
			"buffer":0,
			"byteLength":32,
			"byteOffset":84620
		},
		{
			"buffer":0,
			"byteLength":24,
			"byteOffset":84652
		},
		{
			"buffer":0,
			"byteLength":24,
			"byteOffset":84676
		},
		{
			"buffer":0,
			"byteLength":32,
			"byteOffset":84700
		},
		{
			"buffer":0,
			"byteLength":324,
			"byteOffset":84732
		},
		{
			"buffer":0,
			"byteLength":972,
			"byteOffset":85056
		},
		{
			"buffer":0,
			"byteLength":8,
			"byteOffset":86028
		},
		{
			"buffer":0,
			"byteLength":24,
			"byteOffset":86036
		},
		{
			"buffer":0,
			"byteLength":32,
			"byteOffset":86060
		},
		{
			"buffer":0,
			"byteLength":24,
			"byteOffset":86092
		},
		{
			"buffer":0,
			"byteLength":24,
			"byteOffset":86116
		},
		{
			"buffer":0,
			"byteLength":32,
			"byteOffset":86140
		},
		{
			"buffer":0,
			"byteLength":24,
			"byteOffset":86172
		},
		{
			"buffer":0,
			"byteLength":24,
			"byteOffset":86196
		},
		{
			"buffer":0,
			"byteLength":32,
			"byteOffset":86220
		},
		{
			"buffer":0,
			"byteLength":24,
			"byteOffset":86252
		},
		{
			"buffer":0,
			"byteLength":24,
			"byteOffset":86276
		},
		{
			"buffer":0,
			"byteLength":164,
			"byteOffset":86300
		},
		{
			"buffer":0,
			"byteLength":492,
			"byteOffset":86464
		}
	],
	"samplers":[
		{
			"magFilter":9729,
			"minFilter":9987
		}
	],
	"buffers":[
		{
			"byteLength":86956,
			"uri":"goal.bin"
		}
	]
}
