{
	"asset":{
		"generator":"Khronos glTF Blender I/O v4.1.63",
		"version":"2.0"
	},
	"scene":0,
	"scenes":[
		{
			"name":"Scene",
			"nodes":[
				11
			]
		}
	],
	"nodes":[
		{
			"name":"\u30dc\u30fc\u30f3",
			"scale":[
				1,
				1,
				1.0000001192092896
			],
			"translation":[
				0,
				2.384185791015625e-07,
				0
			]
		},
		{
			"name":"neutral_bone",
			"rotation":[
				-0.7071067690849304,
				0,
				0,
				0.7071067690849304
			]
		},
		{
			"mesh":0,
			"name":"ICO\u7403",
			"skin":0
		},
		{
			"name":"\u30dc\u30fc\u30f3.005",
			"rotation":[
				2.1114955893767814e-15,
				-4.4408836281711536e-16,
				0,
				1
			],
			"scale":[
				0.9999999403953552,
				1,
				1
			],
			"translation":[
				4.76837158203125e-07,
				0.6325235366821289,
				1.785710522592826e-13
			]
		},
		{
			"children":[
				3
			],
			"name":"\u30dc\u30fc\u30f3.004",
			"rotation":[
				8.507138136298886e-15,
				9.769963463734325e-15,
				0,
				1
			],
			"scale":[
				0.9999999403953552,
				1,
				1
			],
			"translation":[
				2.384185791015625e-07,
				0.7070617079734802,
				1.7053025658242404e-13
			]
		},
		{
			"children":[
				4
			],
			"name":"\u30dc\u30fc\u30f3.003",
			"rotation":[
				-1.7763568394002505e-15,
				1.1920927533992653e-07,
				2.2351745343485163e-08,
				1
			],
			"scale":[
				0.9999999403953552,
				0.9999998211860657,
				1
			],
			"translation":[
				-4.76837158203125e-07,
				0.7397862076759338,
				0
			]
		},
		{
			"children":[
				5
			],
			"name":"\u30dc\u30fc\u30f3.002",
			"rotation":[
				0,
				0,
				1.4901162970204496e-08,
				1
			],
			"scale":[
				0.9999999403953552,
				0.9999999403953552,
				1
			],
			"translation":[
				-2.384185791015625e-07,
				0.7480875253677368,
				0
			]
		},
		{
			"children":[
				6
			],
			"name":"\u30dc\u30fc\u30f3.001",
			"rotation":[
				0,
				0,
				1.4901162970204496e-08,
				1
			],
			"scale":[
				0.9999999403953552,
				0.9999999403953552,
				1
			],
			"translation":[
				-2.384185791015625e-07,
				1.0000004768371582,
				0
			]
		},
		{
			"children":[
				7
			],
			"name":"\u30dc\u30fc\u30f3",
			"rotation":[
				0,
				0,
				1.4901162970204496e-08,
				1
			],
			"scale":[
				0.9999999403953552,
				0.9999999403953552,
				1
			],
			"translation":[
				0,
				3.5762786865234375e-07,
				0
			]
		},
		{
			"mesh":1,
			"name":"\u5186\u67f1",
			"skin":1
		},
		{
			"children":[
				9,
				8
			],
			"name":"\u30a2\u30fc\u30de\u30c1\u30e5\u30a2",
			"scale":[
				0.3283659815788269,
				0.3283659815788269,
				0.3283659517765045
			],
			"translation":[
				0,
				1.6296530961990356,
				0
			]
		},
		{
			"children":[
				2,
				10,
				0,
				1
			],
			"name":"\u30a2\u30fc\u30de\u30c1\u30e5\u30a2.001",
			"rotation":[
				0,
				0,
				0.17227807641029358,
				0.9850483536720276
			],
			"scale":[
				0.4255484938621521,
				0.4255484938621521,
				0.4255484938621521
			],
			"translation":[
				0,
				0.9479535818099976,
				0
			]
		}
	],
	"animations":[
		{
			"channels":[
				{
					"sampler":0,
					"target":{
						"node":0,
						"path":"translation"
					}
				},
				{
					"sampler":1,
					"target":{
						"node":0,
						"path":"rotation"
					}
				},
				{
					"sampler":2,
					"target":{
						"node":0,
						"path":"scale"
					}
				},
				{
					"sampler":3,
					"target":{
						"node":11,
						"path":"translation"
					}
				},
				{
					"sampler":4,
					"target":{
						"node":11,
						"path":"rotation"
					}
				},
				{
					"sampler":5,
					"target":{
						"node":11,
						"path":"scale"
					}
				}
			],
			"name":"\u30a2\u30fc\u30de\u30c1\u30e5\u30a2.001Action",
			"samplers":[
				{
					"input":14,
					"interpolation":"STEP",
					"output":15
				},
				{
					"input":14,
					"interpolation":"STEP",
					"output":16
				},
				{
					"input":14,
					"interpolation":"STEP",
					"output":17
				},
				{
					"input":18,
					"interpolation":"LINEAR",
					"output":19
				},
				{
					"input":18,
					"interpolation":"LINEAR",
					"output":20
				},
				{
					"input":14,
					"interpolation":"STEP",
					"output":21
				}
			]
		},
		{
			"channels":[
				{
					"sampler":0,
					"target":{
						"node":8,
						"path":"translation"
					}
				},
				{
					"sampler":1,
					"target":{
						"node":8,
						"path":"rotation"
					}
				},
				{
					"sampler":2,
					"target":{
						"node":8,
						"path":"scale"
					}
				},
				{
					"sampler":3,
					"target":{
						"node":7,
						"path":"translation"
					}
				},
				{
					"sampler":4,
					"target":{
						"node":7,
						"path":"rotation"
					}
				},
				{
					"sampler":5,
					"target":{
						"node":7,
						"path":"scale"
					}
				},
				{
					"sampler":6,
					"target":{
						"node":6,
						"path":"translation"
					}
				},
				{
					"sampler":7,
					"target":{
						"node":6,
						"path":"rotation"
					}
				},
				{
					"sampler":8,
					"target":{
						"node":6,
						"path":"scale"
					}
				},
				{
					"sampler":9,
					"target":{
						"node":5,
						"path":"translation"
					}
				},
				{
					"sampler":10,
					"target":{
						"node":5,
						"path":"rotation"
					}
				},
				{
					"sampler":11,
					"target":{
						"node":5,
						"path":"scale"
					}
				},
				{
					"sampler":12,
					"target":{
						"node":4,
						"path":"translation"
					}
				},
				{
					"sampler":13,
					"target":{
						"node":4,
						"path":"rotation"
					}
				},
				{
					"sampler":14,
					"target":{
						"node":4,
						"path":"scale"
					}
				},
				{
					"sampler":15,
					"target":{
						"node":3,
						"path":"translation"
					}
				},
				{
					"sampler":16,
					"target":{
						"node":3,
						"path":"rotation"
					}
				},
				{
					"sampler":17,
					"target":{
						"node":3,
						"path":"scale"
					}
				}
			],
			"name":"\u30a2\u30fc\u30de\u30c1\u30e5\u30a2Action",
			"samplers":[
				{
					"input":22,
					"interpolation":"STEP",
					"output":23
				},
				{
					"input":22,
					"interpolation":"STEP",
					"output":24
				},
				{
					"input":22,
					"interpolation":"STEP",
					"output":25
				},
				{
					"input":22,
					"interpolation":"STEP",
					"output":26
				},
				{
					"input":27,
					"interpolation":"LINEAR",
					"output":28
				},
				{
					"input":22,
					"interpolation":"STEP",
					"output":29
				},
				{
					"input":22,
					"interpolation":"STEP",
					"output":30
				},
				{
					"input":27,
					"interpolation":"LINEAR",
					"output":31
				},
				{
					"input":22,
					"interpolation":"STEP",
					"output":32
				},
				{
					"input":22,
					"interpolation":"STEP",
					"output":33
				},
				{
					"input":27,
					"interpolation":"LINEAR",
					"output":34
				},
				{
					"input":22,
					"interpolation":"STEP",
					"output":35
				},
				{
					"input":22,
					"interpolation":"STEP",
					"output":36
				},
				{
					"input":27,
					"interpolation":"LINEAR",
					"output":37
				},
				{
					"input":22,
					"interpolation":"STEP",
					"output":38
				},
				{
					"input":22,
					"interpolation":"STEP",
					"output":39
				},
				{
					"input":27,
					"interpolation":"LINEAR",
					"output":40
				},
				{
					"input":22,
					"interpolation":"STEP",
					"output":41
				}
			]
		}
	],
	"materials":[
		{
			"doubleSided":true,
			"name":"\u30de\u30c6\u30ea\u30a2\u30eb.002",
			"pbrMetallicRoughness":{
				"baseColorTexture":{
					"index":0
				},
				"metallicFactor":0,
				"roughnessFactor":0.5
			}
		}
	],
	"meshes":[
		{
			"name":"ICO\u7403.007",
			"primitives":[
				{
					"attributes":{
						"POSITION":0,
						"NORMAL":1,
						"TEXCOORD_0":2,
						"JOINTS_0":3,
						"WEIGHTS_0":4
					},
					"indices":5,
					"material":0
				}
			]
		},
		{
			"name":"\u5186\u67f1.010",
			"primitives":[
				{
					"attributes":{
						"POSITION":7,
						"NORMAL":8,
						"TEXCOORD_0":9,
						"JOINTS_0":10,
						"WEIGHTS_0":11
					},
					"indices":12,
					"material":0
				}
			]
		}
	],
	"textures":[
		{
			"sampler":0,
			"source":0
		}
	],
	"images":[
		{
			"mimeType":"image/png",
			"name":"toge",
			"uri":"toge.png"
		}
	],
	"skins":[
		{
			"inverseBindMatrices":6,
			"joints":[
				0,
				1
			],
			"name":"\u30a2\u30fc\u30de\u30c1\u30e5\u30a2.001"
		},
		{
			"inverseBindMatrices":13,
			"joints":[
				8,
				7,
				6,
				5,
				4,
				3
			],
			"name":"\u30a2\u30fc\u30de\u30c1\u30e5\u30a2"
		}
	],
	"accessors":[
		{
			"bufferView":0,
			"componentType":5126,
			"count":1016,
			"max":[
				1.0857495069503784,
				2.0854263305664062,
				1.085649847984314
			],
			"min":[
				-1.1859990358352661,
				-0.017884228378534317,
				-0.8855831027030945
			],
			"type":"VEC3"
		},
		{
			"bufferView":1,
			"componentType":5126,
			"count":1016,
			"type":"VEC3"
		},
		{
			"bufferView":2,
			"componentType":5126,
			"count":1016,
			"type":"VEC2"
		},
		{
			"bufferView":3,
			"componentType":5121,
			"count":1016,
			"type":"VEC4"
		},
		{
			"bufferView":4,
			"componentType":5126,
			"count":1016,
			"type":"VEC4"
		},
		{
			"bufferView":5,
			"componentType":5123,
			"count":2070,
			"type":"SCALAR"
		},
		{
			"bufferView":6,
			"componentType":5126,
			"count":2,
			"type":"MAT4"
		},
		{
			"bufferView":7,
			"componentType":5126,
			"count":361,
			"max":[
				-0.21959596872329712,
				2.215604543685913,
				0.024213487282395363
			],
			"min":[
				-0.4772081971168518,
				1.611456274986267,
				-0.024213487282395363
			],
			"type":"VEC3"
		},
		{
			"bufferView":8,
			"componentType":5126,
			"count":361,
			"type":"VEC3"
		},
		{
			"bufferView":9,
			"componentType":5126,
			"count":361,
			"type":"VEC2"
		},
		{
			"bufferView":10,
			"componentType":5121,
			"count":361,
			"type":"VEC4"
		},
		{
			"bufferView":11,
			"componentType":5126,
			"count":361,
			"type":"VEC4"
		},
		{
			"bufferView":12,
			"componentType":5123,
			"count":1716,
			"type":"SCALAR"
		},
		{
			"bufferView":13,
			"componentType":5126,
			"count":6,
			"type":"MAT4"
		},
		{
			"bufferView":14,
			"componentType":5126,
			"count":2,
			"max":[
				1.55
			],
			"min":[
				0
			],
			"type":"SCALAR"
		},
		{
			"bufferView":15,
			"componentType":5126,
			"count":2,
			"type":"VEC3"
		},
		{
			"bufferView":16,
			"componentType":5126,
			"count":2,
			"type":"VEC4"
		},
		{
			"bufferView":17,
			"componentType":5126,
			"count":2,
			"type":"VEC3"
		},
		{
			"bufferView":18,
			"componentType":5126,
			"count":94,
			"max":[
				1.55
			],
			"min":[
				0
			],
			"type":"SCALAR"
		},
		{
			"bufferView":19,
			"componentType":5126,
			"count":94,
			"type":"VEC3"
		},
		{
			"bufferView":20,
			"componentType":5126,
			"count":94,
			"type":"VEC4"
		},
		{
			"bufferView":21,
			"componentType":5126,
			"count":2,
			"type":"VEC3"
		},
		{
			"bufferView":22,
			"componentType":5126,
			"count":2,
			"max":[
				1.4833333333333334
			],
			"min":[
				0
			],
			"type":"SCALAR"
		},
		{
			"bufferView":23,
			"componentType":5126,
			"count":2,
			"type":"VEC3"
		},
		{
			"bufferView":24,
			"componentType":5126,
			"count":2,
			"type":"VEC4"
		},
		{
			"bufferView":25,
			"componentType":5126,
			"count":2,
			"type":"VEC3"
		},
		{
			"bufferView":26,
			"componentType":5126,
			"count":2,
			"type":"VEC3"
		},
		{
			"bufferView":27,
			"componentType":5126,
			"count":90,
			"max":[
				1.4833333333333334
			],
			"min":[
				0
			],
			"type":"SCALAR"
		},
		{
			"bufferView":28,
			"componentType":5126,
			"count":90,
			"type":"VEC4"
		},
		{
			"bufferView":29,
			"componentType":5126,
			"count":2,
			"type":"VEC3"
		},
		{
			"bufferView":30,
			"componentType":5126,
			"count":2,
			"type":"VEC3"
		},
		{
			"bufferView":31,
			"componentType":5126,
			"count":90,
			"type":"VEC4"
		},
		{
			"bufferView":32,
			"componentType":5126,
			"count":2,
			"type":"VEC3"
		},
		{
			"bufferView":33,
			"componentType":5126,
			"count":2,
			"type":"VEC3"
		},
		{
			"bufferView":34,
			"componentType":5126,
			"count":90,
			"type":"VEC4"
		},
		{
			"bufferView":35,
			"componentType":5126,
			"count":2,
			"type":"VEC3"
		},
		{
			"bufferView":36,
			"componentType":5126,
			"count":2,
			"type":"VEC3"
		},
		{
			"bufferView":37,
			"componentType":5126,
			"count":90,
			"type":"VEC4"
		},
		{
			"bufferView":38,
			"componentType":5126,
			"count":2,
			"type":"VEC3"
		},
		{
			"bufferView":39,
			"componentType":5126,
			"count":2,
			"type":"VEC3"
		},
		{
			"bufferView":40,
			"componentType":5126,
			"count":90,
			"type":"VEC4"
		},
		{
			"bufferView":41,
			"componentType":5126,
			"count":2,
			"type":"VEC3"
		}
	],
	"bufferViews":[
		{
			"buffer":0,
			"byteLength":12192,
			"byteOffset":0,
			"target":34962
		},
		{
			"buffer":0,
			"byteLength":12192,
			"byteOffset":12192,
			"target":34962
		},
		{
			"buffer":0,
			"byteLength":8128,
			"byteOffset":24384,
			"target":34962
		},
		{
			"buffer":0,
			"byteLength":4064,
			"byteOffset":32512,
			"target":34962
		},
		{
			"buffer":0,
			"byteLength":16256,
			"byteOffset":36576,
			"target":34962
		},
		{
			"buffer":0,
			"byteLength":4140,
			"byteOffset":52832,
			"target":34963
		},
		{
			"buffer":0,
			"byteLength":128,
			"byteOffset":56972
		},
		{
			"buffer":0,
			"byteLength":4332,
			"byteOffset":57100,
			"target":34962
		},
		{
			"buffer":0,
			"byteLength":4332,
			"byteOffset":61432,
			"target":34962
		},
		{
			"buffer":0,
			"byteLength":2888,
			"byteOffset":65764,
			"target":34962
		},
		{
			"buffer":0,
			"byteLength":1444,
			"byteOffset":68652,
			"target":34962
		},
		{
			"buffer":0,
			"byteLength":5776,
			"byteOffset":70096,
			"target":34962
		},
		{
			"buffer":0,
			"byteLength":3432,
			"byteOffset":75872,
			"target":34963
		},
		{
			"buffer":0,
			"byteLength":384,
			"byteOffset":79304
		},
		{
			"buffer":0,
			"byteLength":8,
			"byteOffset":79688
		},
		{
			"buffer":0,
			"byteLength":24,
			"byteOffset":79696
		},
		{
			"buffer":0,
			"byteLength":32,
			"byteOffset":79720
		},
		{
			"buffer":0,
			"byteLength":24,
			"byteOffset":79752
		},
		{
			"buffer":0,
			"byteLength":376,
			"byteOffset":79776
		},
		{
			"buffer":0,
			"byteLength":1128,
			"byteOffset":80152
		},
		{
			"buffer":0,
			"byteLength":1504,
			"byteOffset":81280
		},
		{
			"buffer":0,
			"byteLength":24,
			"byteOffset":82784
		},
		{
			"buffer":0,
			"byteLength":8,
			"byteOffset":82808
		},
		{
			"buffer":0,
			"byteLength":24,
			"byteOffset":82816
		},
		{
			"buffer":0,
			"byteLength":32,
			"byteOffset":82840
		},
		{
			"buffer":0,
			"byteLength":24,
			"byteOffset":82872
		},
		{
			"buffer":0,
			"byteLength":24,
			"byteOffset":82896
		},
		{
			"buffer":0,
			"byteLength":360,
			"byteOffset":82920
		},
		{
			"buffer":0,
			"byteLength":1440,
			"byteOffset":83280
		},
		{
			"buffer":0,
			"byteLength":24,
			"byteOffset":84720
		},
		{
			"buffer":0,
			"byteLength":24,
			"byteOffset":84744
		},
		{
			"buffer":0,
			"byteLength":1440,
			"byteOffset":84768
		},
		{
			"buffer":0,
			"byteLength":24,
			"byteOffset":86208
		},
		{
			"buffer":0,
			"byteLength":24,
			"byteOffset":86232
		},
		{
			"buffer":0,
			"byteLength":1440,
			"byteOffset":86256
		},
		{
			"buffer":0,
			"byteLength":24,
			"byteOffset":87696
		},
		{
			"buffer":0,
			"byteLength":24,
			"byteOffset":87720
		},
		{
			"buffer":0,
			"byteLength":1440,
			"byteOffset":87744
		},
		{
			"buffer":0,
			"byteLength":24,
			"byteOffset":89184
		},
		{
			"buffer":0,
			"byteLength":24,
			"byteOffset":89208
		},
		{
			"buffer":0,
			"byteLength":1440,
			"byteOffset":89232
		},
		{
			"buffer":0,
			"byteLength":24,
			"byteOffset":90672
		}
	],
	"samplers":[
		{
			"magFilter":9729,
			"minFilter":9987
		}
	],
	"buffers":[
		{
			"byteLength":90696,
			"uri":"enemy_spike.bin"
		}
	]
}
