{
	"asset":{
		"generator":"Khronos glTF Blender I/O v4.1.63",
		"version":"2.0"
	},
	"scene":0,
	"scenes":[
		{
			"name":"Scene",
			"nodes":[
				0,
				1,
				2
			]
		}
	],
	"nodes":[
		{
			"mesh":0,
			"name":"ICO\u7403",
			"scale":[
				0.7280578017234802,
				0.6034002900123596,
				0.7280578017234802
			],
			"translation":[
				0,
				0.9245463013648987,
				0
			]
		},
		{
			"mesh":1,
			"name":"\u5186\u67f1",
			"rotation":[
				0,
				1,
				0,
				0
			],
			"scale":[
				0.024213489145040512,
				0.31239986419677734,
				0.024213489145040512
			],
			"translation":[
				0,
				1.7548216581344604,
				0
			]
		},
		{
			"mesh":2,
			"name":"\u5186\u9310.001",
			"rotation":[
				0,
				-0.11757981777191162,
				0,
				0.9930634498596191
			],
			"scale":[
				0.3441770076751709,
				0.21905028820037842,
				0.4138805866241455
			],
			"translation":[
				-0.5629430413246155,
				0.24570991098880768,
				0
			]
		}
	],
	"materials":[
		{
			"doubleSided":true,
			"name":"\u30de\u30c6\u30ea\u30a2\u30eb.002",
			"pbrMetallicRoughness":{
				"baseColorTexture":{
					"index":0
				},
				"metallicFactor":0,
				"roughnessFactor":0.5
			}
		}
	],
	"meshes":[
		{
			"name":"ICO\u7403.007",
			"primitives":[
				{
					"attributes":{
						"POSITION":0,
						"NORMAL":1,
						"TEXCOORD_0":2
					},
					"indices":3,
					"material":0
				}
			]
		},
		{
			"name":"\u5186\u67f1.010",
			"primitives":[
				{
					"attributes":{
						"POSITION":4,
						"NORMAL":5,
						"TEXCOORD_0":6
					},
					"indices":7,
					"material":0
				}
			]
		},
		{
			"name":"\u5186\u9310.001",
			"primitives":[
				{
					"attributes":{
						"POSITION":8,
						"NORMAL":9,
						"TEXCOORD_0":10
					},
					"indices":11,
					"material":0
				}
			]
		}
	],
	"textures":[
		{
			"sampler":0,
			"source":0
		}
	],
	"images":[
		{
			"mimeType":"image/png",
			"name":"toge",
			"uri":"toge.png"
		}
	],
	"accessors":[
		{
			"bufferView":0,
			"componentType":5126,
			"count":986,
			"max":[
				1.5678989887237549,
				1.5022112131118774,
				1.4911590814590454
			],
			"min":[
				-1.5678987503051758,
				-1.502211332321167,
				-1.216363787651062
			],
			"type":"VEC3"
		},
		{
			"bufferView":1,
			"componentType":5126,
			"count":986,
			"type":"VEC3"
		},
		{
			"bufferView":2,
			"componentType":5126,
			"count":986,
			"type":"VEC2"
		},
		{
			"bufferView":3,
			"componentType":5123,
			"count":2028,
			"type":"SCALAR"
		},
		{
			"bufferView":4,
			"componentType":5126,
			"count":192,
			"max":[
				1,
				1,
				1
			],
			"min":[
				-1,
				-1,
				-1
			],
			"type":"VEC3"
		},
		{
			"bufferView":5,
			"componentType":5126,
			"count":192,
			"type":"VEC3"
		},
		{
			"bufferView":6,
			"componentType":5126,
			"count":192,
			"type":"VEC2"
		},
		{
			"bufferView":7,
			"componentType":5123,
			"count":372,
			"type":"SCALAR"
		},
		{
			"bufferView":8,
			"componentType":5126,
			"count":24,
			"max":[
				4.225417137145996,
				1,
				0.5
			],
			"min":[
				-0.8660253882408142,
				-1.000000238418579,
				-1.5262001752853394
			],
			"type":"VEC3"
		},
		{
			"bufferView":9,
			"componentType":5126,
			"count":24,
			"type":"VEC3"
		},
		{
			"bufferView":10,
			"componentType":5126,
			"count":24,
			"type":"VEC2"
		},
		{
			"bufferView":11,
			"componentType":5123,
			"count":24,
			"type":"SCALAR"
		}
	],
	"bufferViews":[
		{
			"buffer":0,
			"byteLength":11832,
			"byteOffset":0,
			"target":34962
		},
		{
			"buffer":0,
			"byteLength":11832,
			"byteOffset":11832,
			"target":34962
		},
		{
			"buffer":0,
			"byteLength":7888,
			"byteOffset":23664,
			"target":34962
		},
		{
			"buffer":0,
			"byteLength":4056,
			"byteOffset":31552,
			"target":34963
		},
		{
			"buffer":0,
			"byteLength":2304,
			"byteOffset":35608,
			"target":34962
		},
		{
			"buffer":0,
			"byteLength":2304,
			"byteOffset":37912,
			"target":34962
		},
		{
			"buffer":0,
			"byteLength":1536,
			"byteOffset":40216,
			"target":34962
		},
		{
			"buffer":0,
			"byteLength":744,
			"byteOffset":41752,
			"target":34963
		},
		{
			"buffer":0,
			"byteLength":288,
			"byteOffset":42496,
			"target":34962
		},
		{
			"buffer":0,
			"byteLength":288,
			"byteOffset":42784,
			"target":34962
		},
		{
			"buffer":0,
			"byteLength":192,
			"byteOffset":43072,
			"target":34962
		},
		{
			"buffer":0,
			"byteLength":48,
			"byteOffset":43264,
			"target":34963
		}
	],
	"samplers":[
		{
			"magFilter":9729,
			"minFilter":9987
		}
	],
	"buffers":[
		{
			"byteLength":43312,
			"uri":"enemy_spike.bin"
		}
	]
}
