{
	"asset":{
		"generator":"Khronos glTF Blender I/O v4.1.63",
		"version":"2.0"
	},
	"scene":0,
	"scenes":[
		{
			"name":"Scene",
			"nodes":[
				0
			]
		}
	],
	"nodes":[
		{
			"mesh":0,
			"name":"katana"
		}
	],
	"meshes":[
		{
			"name":"\u7acb\u65b9\u4f53.021",
			"primitives":[
				{
					"attributes":{
						"POSITION":0,
						"NORMAL":1,
						"TEXCOORD_0":2
					},
					"indices":3
				}
			]
		}
	],
	"accessors":[
		{
			"bufferView":0,
			"componentType":5126,
			"count":1005,
			"max":[
				0.30882346630096436,
				3.916541576385498,
				0.28996357321739197
			],
			"min":[
				-0.3395070731639862,
				0.002812027931213379,
				-0.28996357321739197
			],
			"type":"VEC3"
		},
		{
			"bufferView":1,
			"componentType":5126,
			"count":1005,
			"type":"VEC3"
		},
		{
			"bufferView":2,
			"componentType":5126,
			"count":1005,
			"type":"VEC2"
		},
		{
			"bufferView":3,
			"componentType":5123,
			"count":2808,
			"type":"SCALAR"
		}
	],
	"bufferViews":[
		{
			"buffer":0,
			"byteLength":12060,
			"byteOffset":0,
			"target":34962
		},
		{
			"buffer":0,
			"byteLength":12060,
			"byteOffset":12060,
			"target":34962
		},
		{
			"buffer":0,
			"byteLength":8040,
			"byteOffset":24120,
			"target":34962
		},
		{
			"buffer":0,
			"byteLength":5616,
			"byteOffset":32160,
			"target":34963
		}
	],
	"buffers":[
		{
			"byteLength":37776,
			"uri":"JapaneseSword.bin"
		}
	]
}
