# Blender 4.1.1
# www.blender.org
mtllib door.mtl
o 立方体
v -1.000000 0.000000 0.100000
v -1.000000 2.000000 0.100000
v -1.000000 0.000000 -0.100000
v -1.000000 2.000000 -0.100000
v 1.000000 0.000000 0.100000
v 1.000000 2.000000 0.100000
v 1.000000 0.000000 -0.100000
v 1.000000 2.000000 -0.100000
v -0.756105 1.795957 -0.100000
v -0.321869 1.795957 -0.100000
v -0.556105 1.795957 -0.100000
v 0.145570 1.795957 -0.100000
v -0.121869 1.795957 -0.100000
v 0.345570 1.795957 -0.100000
v 0.563942 1.795957 -0.100000
v 0.763942 1.795957 -0.100000
v -0.756105 0.195957 -0.100000
v -0.556105 0.195957 -0.100000
v -0.321869 0.195957 -0.100000
v -0.121869 0.195957 -0.100000
v 0.145570 0.195957 -0.100000
v 0.563942 0.195957 -0.100000
v 0.345570 0.195957 -0.100000
v 0.763942 0.195957 -0.100000
v -0.756105 1.795957 0.100000
v -0.556105 1.795957 0.100000
v -0.321869 1.795957 0.100000
v -0.121869 1.795957 0.100000
v 0.145570 1.795957 0.100000
v 0.345570 1.795957 0.100000
v 0.763942 1.795957 0.100000
v 0.563942 1.795957 0.100000
v -0.756105 0.195957 0.100000
v -0.321869 0.195957 0.100000
v -0.556105 0.195957 0.100000
v 0.145570 0.195957 0.100000
v -0.121869 0.195957 0.100000
v 0.763942 0.195957 0.100000
v 0.563942 0.195957 0.100000
v 0.345570 0.195957 0.100000
vn -1.0000 -0.0000 -0.0000
vn -0.0000 -0.0000 -1.0000
vn 1.0000 -0.0000 -0.0000
vn -0.0000 -0.0000 1.0000
vn -0.0000 -1.0000 -0.0000
vn -0.0000 1.0000 -0.0000
vt 0.375000 0.000000
vt 0.625000 0.000000
vt 0.625000 0.250000
vt 0.375000 0.250000
vt 0.399495 0.334766
vt 0.399495 0.305487
vt 0.599495 0.305487
vt 0.599495 0.334766
vt 0.625000 0.500000
vt 0.375000 0.500000
vt 0.399495 0.470493
vt 0.599495 0.470493
vt 0.399495 0.359766
vt 0.599495 0.359766
vt 0.599495 0.393196
vt 0.399495 0.393196
vt 0.599495 0.445493
vt 0.599495 0.418196
vt 0.599495 0.280487
vt 0.399495 0.280487
vt 0.399495 0.418196
vt 0.399495 0.445493
vt 0.625000 0.750000
vt 0.375000 0.750000
vt 0.599495 0.779507
vt 0.625000 1.000000
vt 0.375000 1.000000
vt 0.399495 0.779507
vt 0.399495 0.804507
vt 0.399495 0.831804
vt 0.399495 0.856804
vt 0.399495 0.890234
vt 0.399495 0.915234
vt 0.399495 0.944513
vt 0.399495 0.969513
vt 0.599495 0.969513
vt 0.599495 0.944513
vt 0.599495 0.915234
vt 0.599495 0.890234
vt 0.599495 0.856804
vt 0.599495 0.831804
vt 0.599495 0.804507
vt 0.125000 0.500000
vt 0.125000 0.750000
vt 0.875000 0.500000
vt 0.875000 0.750000
vt 0.375000 0.112500
vt 0.375000 0.137500
vt 0.625000 0.137500
vt 0.625000 0.112500
vt 0.625000 0.637500
vt 0.625000 0.612500
vt 0.375000 0.612500
vt 0.375000 0.637500
vt 0.125000 0.612500
vt 0.125000 0.637500
vt 0.875000 0.612500
vt 0.875000 0.637500
s 0
f 1/1/1 2/2/1 4/3/1 3/4/1
f 19/5/2 18/6/2 11/7/2 10/8/2
f 8/9/2 7/10/2 24/11/2 16/12/2
f 20/13/2 13/14/2 12/15/2 21/16/2
f 24/11/2 7/10/2 3/4/2 4/3/2 8/9/2 16/12/2 15/17/2 14/18/2 12/15/2 13/14/2 10/8/2 11/7/2 9/19/2 17/20/2 18/6/2 19/5/2 20/13/2 21/16/2 23/21/2 22/22/2
f 14/18/2 15/17/2 22/22/2 23/21/2
f 7/10/3 8/9/3 6/23/3 5/24/3
f 31/25/4 6/23/4 2/26/4 1/27/4 5/24/4 38/28/4 39/29/4 40/30/4 36/31/4 37/32/4 34/33/4 35/34/4 33/35/4 25/36/4 26/37/4 27/38/4 28/39/4 29/40/4 30/41/4 32/42/4
f 34/33/4 27/38/4 26/37/4 35/34/4
f 36/31/4 29/40/4 28/39/4 37/32/4
f 5/24/4 6/23/4 31/25/4 38/28/4
f 39/29/4 32/42/4 30/41/4 40/30/4
f 3/43/5 7/10/5 5/24/5 1/44/5
f 8/9/6 4/45/6 2/46/6 6/23/6
f 34/47/3 19/48/3 10/49/3 27/50/3
f 28/51/1 13/52/1 20/53/1 37/54/1
f 37/54/6 20/53/6 19/55/6 34/56/6
f 10/57/5 13/52/5 28/51/5 27/58/5
f 39/47/3 22/48/3 15/49/3 32/50/3
f 24/53/1 38/54/1 31/51/1 16/52/1
f 38/54/6 24/53/6 22/55/6 39/56/6
f 15/57/5 16/52/5 31/51/5 32/58/5
f 33/47/3 17/48/3 9/49/3 25/50/3
f 26/51/1 11/52/1 18/53/1 35/54/1
f 35/54/6 18/53/6 17/55/6 33/56/6
f 9/57/5 11/52/5 26/51/5 25/58/5
f 36/47/3 21/48/3 12/49/3 29/50/3
f 23/53/1 40/54/1 30/51/1 14/52/1
f 40/54/6 23/53/6 21/55/6 36/56/6
f 12/57/5 14/52/5 30/51/5 29/58/5
