{
	"asset":{
		"generator":"Khronos glTF Blender I/O v4.1.63",
		"version":"2.0"
	},
	"scene":0,
	"scenes":[
		{
			"name":"Scene",
			"nodes":[
				2,
				5
			]
		}
	],
	"nodes":[
		{
			"name":"\u30dc\u30fc\u30f3"
		},
		{
			"mesh":0,
			"name":"Egg.001",
			"skin":0
		},
		{
			"children":[
				1,
				0
			],
			"name":"\u30a2\u30fc\u30de\u30c1\u30e5\u30a2"
		},
		{
			"name":"\u30dc\u30fc\u30f3"
		},
		{
			"mesh":1,
			"name":"Egg",
			"skin":1
		},
		{
			"children":[
				4,
				3
			],
			"name":"\u30a2\u30fc\u30de\u30c1\u30e5\u30a2.001",
			"translation":[
				0,
				1.4190583229064941,
				0
			]
		}
	],
	"animations":[
		{
			"channels":[
				{
					"sampler":0,
					"target":{
						"node":0,
						"path":"translation"
					}
				},
				{
					"sampler":1,
					"target":{
						"node":0,
						"path":"rotation"
					}
				},
				{
					"sampler":2,
					"target":{
						"node":0,
						"path":"scale"
					}
				}
			],
			"name":"\u30a2\u30fc\u30de\u30c1\u30e5\u30a2Action",
			"samplers":[
				{
					"input":14,
					"interpolation":"LINEAR",
					"output":15
				},
				{
					"input":14,
					"interpolation":"LINEAR",
					"output":16
				},
				{
					"input":14,
					"interpolation":"LINEAR",
					"output":17
				}
			]
		},
		{
			"channels":[
				{
					"sampler":0,
					"target":{
						"node":3,
						"path":"translation"
					}
				},
				{
					"sampler":1,
					"target":{
						"node":3,
						"path":"rotation"
					}
				},
				{
					"sampler":2,
					"target":{
						"node":3,
						"path":"scale"
					}
				}
			],
			"name":"born",
			"samplers":[
				{
					"input":18,
					"interpolation":"LINEAR",
					"output":19
				},
				{
					"input":18,
					"interpolation":"LINEAR",
					"output":20
				},
				{
					"input":21,
					"interpolation":"STEP",
					"output":22
				}
			]
		}
	],
	"materials":[
		{
			"doubleSided":true,
			"name":"\u30de\u30c6\u30ea\u30a2\u30eb",
			"pbrMetallicRoughness":{
				"baseColorTexture":{
					"index":0
				},
				"metallicFactor":0,
				"roughnessFactor":0.5
			}
		}
	],
	"meshes":[
		{
			"name":"\u7403.001",
			"primitives":[
				{
					"attributes":{
						"POSITION":0,
						"NORMAL":1,
						"TEXCOORD_0":2,
						"JOINTS_0":3,
						"WEIGHTS_0":4
					},
					"indices":5,
					"material":0
				}
			]
		},
		{
			"name":"\u7403",
			"primitives":[
				{
					"attributes":{
						"POSITION":7,
						"NORMAL":8,
						"TEXCOORD_0":9,
						"JOINTS_0":10,
						"WEIGHTS_0":11
					},
					"indices":12,
					"material":0
				}
			]
		}
	],
	"textures":[
		{
			"sampler":0,
			"source":0
		}
	],
	"images":[
		{
			"mimeType":"image/png",
			"name":"egg",
			"uri":"egg.png"
		}
	],
	"skins":[
		{
			"inverseBindMatrices":6,
			"joints":[
				0
			],
			"name":"\u30a2\u30fc\u30de\u30c1\u30e5\u30a2"
		},
		{
			"inverseBindMatrices":13,
			"joints":[
				3
			],
			"name":"\u30a2\u30fc\u30de\u30c1\u30e5\u30a2.001"
		}
	],
	"accessors":[
		{
			"bufferView":0,
			"componentType":5126,
			"count":1087,
			"max":[
				0.9999997019767761,
				1.0785737037658691,
				0.9999993443489075
			],
			"min":[
				-0.9999990463256836,
				-0.009242057800292969,
				-1
			],
			"type":"VEC3"
		},
		{
			"bufferView":1,
			"componentType":5126,
			"count":1087,
			"type":"VEC3"
		},
		{
			"bufferView":2,
			"componentType":5126,
			"count":1087,
			"type":"VEC2"
		},
		{
			"bufferView":3,
			"componentType":5121,
			"count":1087,
			"type":"VEC4"
		},
		{
			"bufferView":4,
			"componentType":5126,
			"count":1087,
			"type":"VEC4"
		},
		{
			"bufferView":5,
			"componentType":5123,
			"count":6048,
			"type":"SCALAR"
		},
		{
			"bufferView":6,
			"componentType":5126,
			"count":1,
			"type":"MAT4"
		},
		{
			"bufferView":7,
			"componentType":5126,
			"count":955,
			"max":[
				0.9701694846153259,
				2.4882564544677734,
				0.9701692461967468
			],
			"min":[
				-0.9701690673828125,
				1.2218585014343262,
				-0.970169723033905
			],
			"type":"VEC3"
		},
		{
			"bufferView":8,
			"componentType":5126,
			"count":955,
			"type":"VEC3"
		},
		{
			"bufferView":9,
			"componentType":5126,
			"count":955,
			"type":"VEC2"
		},
		{
			"bufferView":10,
			"componentType":5121,
			"count":955,
			"type":"VEC4"
		},
		{
			"bufferView":11,
			"componentType":5126,
			"count":955,
			"type":"VEC4"
		},
		{
			"bufferView":12,
			"componentType":5123,
			"count":5280,
			"type":"SCALAR"
		},
		{
			"bufferView":13,
			"componentType":5126,
			"count":1,
			"type":"MAT4"
		},
		{
			"bufferView":14,
			"componentType":5126,
			"count":1,
			"max":[
				0
			],
			"min":[
				0
			],
			"type":"SCALAR"
		},
		{
			"bufferView":15,
			"componentType":5126,
			"count":1,
			"type":"VEC3"
		},
		{
			"bufferView":16,
			"componentType":5126,
			"count":1,
			"type":"VEC4"
		},
		{
			"bufferView":17,
			"componentType":5126,
			"count":1,
			"type":"VEC3"
		},
		{
			"bufferView":18,
			"componentType":5126,
			"count":51,
			"max":[
				0.8333333333333334
			],
			"min":[
				0
			],
			"type":"SCALAR"
		},
		{
			"bufferView":19,
			"componentType":5126,
			"count":51,
			"type":"VEC3"
		},
		{
			"bufferView":20,
			"componentType":5126,
			"count":51,
			"type":"VEC4"
		},
		{
			"bufferView":21,
			"componentType":5126,
			"count":2,
			"max":[
				0.8333333333333334
			],
			"min":[
				0
			],
			"type":"SCALAR"
		},
		{
			"bufferView":22,
			"componentType":5126,
			"count":2,
			"type":"VEC3"
		}
	],
	"bufferViews":[
		{
			"buffer":0,
			"byteLength":13044,
			"byteOffset":0,
			"target":34962
		},
		{
			"buffer":0,
			"byteLength":13044,
			"byteOffset":13044,
			"target":34962
		},
		{
			"buffer":0,
			"byteLength":8696,
			"byteOffset":26088,
			"target":34962
		},
		{
			"buffer":0,
			"byteLength":4348,
			"byteOffset":34784,
			"target":34962
		},
		{
			"buffer":0,
			"byteLength":17392,
			"byteOffset":39132,
			"target":34962
		},
		{
			"buffer":0,
			"byteLength":12096,
			"byteOffset":56524,
			"target":34963
		},
		{
			"buffer":0,
			"byteLength":64,
			"byteOffset":68620
		},
		{
			"buffer":0,
			"byteLength":11460,
			"byteOffset":68684,
			"target":34962
		},
		{
			"buffer":0,
			"byteLength":11460,
			"byteOffset":80144,
			"target":34962
		},
		{
			"buffer":0,
			"byteLength":7640,
			"byteOffset":91604,
			"target":34962
		},
		{
			"buffer":0,
			"byteLength":3820,
			"byteOffset":99244,
			"target":34962
		},
		{
			"buffer":0,
			"byteLength":15280,
			"byteOffset":103064,
			"target":34962
		},
		{
			"buffer":0,
			"byteLength":10560,
			"byteOffset":118344,
			"target":34963
		},
		{
			"buffer":0,
			"byteLength":64,
			"byteOffset":128904
		},
		{
			"buffer":0,
			"byteLength":4,
			"byteOffset":128968
		},
		{
			"buffer":0,
			"byteLength":12,
			"byteOffset":128972
		},
		{
			"buffer":0,
			"byteLength":16,
			"byteOffset":128984
		},
		{
			"buffer":0,
			"byteLength":12,
			"byteOffset":129000
		},
		{
			"buffer":0,
			"byteLength":204,
			"byteOffset":129012
		},
		{
			"buffer":0,
			"byteLength":612,
			"byteOffset":129216
		},
		{
			"buffer":0,
			"byteLength":816,
			"byteOffset":129828
		},
		{
			"buffer":0,
			"byteLength":8,
			"byteOffset":130644
		},
		{
			"buffer":0,
			"byteLength":24,
			"byteOffset":130652
		}
	],
	"samplers":[
		{
			"magFilter":9729,
			"minFilter":9987
		}
	],
	"buffers":[
		{
			"byteLength":130676,
			"uri":"egg_born.bin"
		}
	]
}
