# Blender 4.1.1
# www.blender.org
mtllib UFO.mtl
o 円柱.001
v 0.284755 -0.365566 -1.431562
v 0.455201 1.005125 -0.519478
v 1.194003 -0.365311 -0.797807
v 1.431485 -0.365606 0.284740
v 0.797807 -0.365311 1.194003
v 0.409493 1.002006 0.532695
v -0.533432 1.001758 0.410060
v -0.284755 -0.365566 1.431562
v -1.194003 -0.365311 0.797807
v -0.490512 1.000523 -0.428540
v -1.431485 -0.365606 -0.284740
v -0.797807 -0.365311 -1.194003
v 0.722295 0.228907 -1.141469
v 1.174106 0.230027 -0.646273
v 1.351801 0.226196 -0.027523
v 1.141469 0.228907 0.722295
v 0.646273 0.230027 1.174106
v 0.027523 0.226196 1.351801
v -0.722295 0.228907 1.141469
v -1.174106 0.230027 0.646273
v -1.351801 0.226196 0.027523
v -1.141469 0.228907 -0.722295
v -0.646273 0.230027 -1.174106
v -0.027522 0.226196 -1.351801
v 1.391301 -0.109246 -1.391301
v 1.901520 -0.109296 -0.221016
v 1.793867 -0.110884 0.718013
v 0.787095 -0.106532 1.808989
v -0.718013 -0.110884 1.793867
v -1.585628 -0.107826 1.095034
v -1.935125 -0.109286 0.000000
v -1.391301 -0.109246 -1.391301
v -0.000000 -0.109286 -1.935125
v 0.609016 0.872911 -0.915492
v 1.051398 0.873228 -0.186571
v 0.977859 0.873228 0.428998
v 0.506253 0.875991 0.947133
v -0.183971 0.871883 1.052441
v -0.756549 0.871872 0.758989
v -1.087452 0.875895 0.003150
v -0.820805 0.872508 -0.673617
v -0.312130 0.873137 -1.028955
vn 0.0376 0.9522 -0.3033
vn 0.3119 0.9310 -0.1897
vn 0.2030 0.9789 0.0243
vn 0.2544 0.9402 0.2265
vn 0.0374 0.9585 0.2827
vn -0.1371 0.9538 0.2674
vn -0.3190 0.9366 0.1447
vn -0.2828 0.9521 -0.1162
vn -0.1792 0.9502 -0.2548
vn -0.0006 1.0000 0.0029
vn -0.0000 -1.0000 -0.0000
vn -0.2120 0.8129 -0.5425
vn -0.5392 0.8154 -0.2108
vn -0.5139 0.8423 0.1629
vn -0.3474 0.8307 0.4350
vn -0.0083 0.8019 0.5974
vn 0.4272 0.8153 0.3910
vn 0.5359 0.8419 0.0629
vn 0.5170 0.8258 -0.2254
vn 0.2108 0.8154 -0.5392
vn 0.2247 -0.9197 -0.3221
vn 0.4019 -0.9114 -0.0884
vn 0.3472 -0.9060 0.2422
vn 0.0853 -0.9178 0.3877
vn -0.2422 -0.9060 0.3472
vn -0.4107 -0.9073 0.0903
vn -0.3221 -0.9197 -0.2248
vn -0.0903 -0.9073 -0.4107
vn -0.2578 0.3382 -0.9051
vn -0.6280 0.3649 -0.6874
vn -0.8998 0.3567 -0.2511
vn -0.8925 0.3727 0.2540
vn -0.6943 0.3403 0.6342
vn -0.2531 0.3375 0.9067
vn 0.2544 0.3692 0.8938
vn 0.6250 0.3759 0.6841
vn 0.9042 0.3445 0.2524
vn 0.8993 0.3546 -0.2561
vn 0.6932 0.3441 -0.6333
vn 0.2508 0.3595 -0.8988
vn 0.2231 0.9747 0.0126
vn -0.0279 0.9767 0.2127
vn -0.2129 0.9770 -0.0123
vn -0.0050 1.0000 -0.0017
vn -0.0254 0.9764 -0.2147
vn 0.0006 -1.0000 -0.0004
vn 0.0004 -1.0000 0.0006
vn -0.0006 -1.0000 0.0004
vn -0.0004 -1.0000 -0.0006
vn -0.1379 0.8558 -0.4987
vn -0.3078 0.8905 -0.3351
vn -0.4893 0.8617 -0.1341
vn -0.4987 0.8558 0.1379
vn -0.3585 0.8736 0.3290
vn -0.1256 0.8796 0.4589
vn 0.1219 0.8879 0.4436
vn 0.3469 0.8583 0.3781
vn 0.4589 0.8796 0.1256
vn 0.4818 0.8661 -0.1330
vn 0.3351 0.8905 -0.3078
vn 0.1341 0.8617 -0.4893
vn 0.2091 -0.8187 -0.5349
vn 0.4788 -0.8528 -0.2088
vn 0.5260 -0.8484 0.0589
vn 0.3897 -0.8464 0.3630
vn -0.0034 -0.8200 0.5724
vn -0.2995 -0.8803 0.3680
vn -0.4620 -0.8743 0.1486
vn -0.5349 -0.8187 -0.2091
vn -0.1964 -0.8421 -0.5023
vn -0.5161 0.4347 -0.7380
vn -0.8344 0.4408 -0.3310
vn -0.8104 0.4644 0.3572
vn -0.4071 0.4508 0.7943
vn 0.1319 0.4522 0.8821
vn 0.6642 0.4428 0.6022
vn 0.8916 0.4401 0.1065
vn 0.7540 0.4710 -0.4578
vn 0.1073 0.4813 -0.8700
vt 0.049882 0.678811
vt 0.000000 0.640485
vt 0.108282 0.555033
vt 0.000000 0.767208
vt 0.056808 0.839744
vt 0.136823 0.808966
vt 0.156673 0.869200
vt 0.252492 0.829355
vt 0.247166 0.720670
vt 0.302610 0.747917
vt 0.286365 0.626367
vt 0.177053 0.617438
vt 0.200309 0.560951
vt 0.250070 0.073748
vt 0.501563 0.249281
vt 0.326077 0.500890
vt 0.517797 0.650538
vt 0.442177 0.775668
vt 0.442177 0.555033
vt 0.785290 0.648753
vt 0.643263 0.574996
vt 0.653905 0.469804
vt 0.700370 0.770264
vt 0.777045 0.819383
vt 0.654460 0.858684
vt 0.679228 0.952978
vt 0.515772 0.894581
vt 0.442177 0.994947
vt 0.442177 0.775668
vt 0.923098 0.628271
vt 1.000000 0.469804
vt 1.000000 0.675634
vt 0.697593 0.343905
vt 0.726344 0.469804
vt 0.618973 0.379231
vt 0.653725 0.258874
vt 0.554846 0.200657
vt 0.649862 -0.000000
vt 0.652104 0.159260
vt 0.169758 0.555033
vt 0.165983 0.462359
vt 0.035872 0.420643
vt 0.074584 0.325357
vt -0.000000 0.284834
vt 0.113106 0.165206
vt 0.080310 0.079341
vt 0.289426 0.000000
vt 0.410162 0.112279
vt 0.554846 0.182460
vt 0.554822 0.404475
vt 0.463038 0.409432
vt 0.391696 0.555033
vt 0.407261 0.738252
vt 0.311169 0.801796
vt 0.302610 0.706529
vt 0.411589 0.650984
vt 0.312761 0.617024
vt 0.442177 0.584078
vt 0.348421 0.555033
vt 0.796772 0.025006
vt 0.893771 -0.000000
vt 0.921858 0.050873
vt 0.828492 0.103420
vt 0.934686 0.135494
vt 0.825950 0.196713
vt 0.922034 0.250465
vt 0.796772 0.289975
vt 0.891219 0.330596
vt 0.923098 0.764567
vt 0.826743 0.801275
vt 0.796379 0.716646
vt 0.894285 0.671541
vt 0.785290 0.601628
vt 0.891870 0.581201
vt 0.799595 0.521220
vt 0.923098 0.496240
vt 0.830440 0.469804
vt 0.442177 0.863733
vt 0.346670 0.898820
vt 0.796772 0.016200
vt 0.711752 0.060070
vt 0.554846 0.529089
vt 0.702191 0.674611
vt 0.554846 0.917618
vt 0.878066 0.898380
vt 0.900315 0.991438
vt 0.785290 0.927065
vt 0.900315 0.801276
vt 0.796772 0.403546
vt 0.447264 0.049790
s 0
usemtl マテリアル.001
f 2/1/1 34/2/1 42/3/1
f 2/1/2 35/4/2 34/2/2
f 2/1/3 36/5/3 35/4/3
f 6/6/4 37/7/4 36/5/4
f 37/7/5 6/6/5 38/8/5
f 7/9/6 39/10/6 38/8/6
f 7/9/7 40/11/7 39/10/7
f 10/12/8 41/13/8 40/11/8
f 41/13/9 10/12/9 42/3/9
f 7/9/10 6/6/10 2/1/10
f 8/14/11 11/15/11 1/16/11
f 23/17/12 33/18/12 32/19/12
f 31/20/13 22/21/13 32/22/13
f 20/23/14 31/20/14 30/24/14
f 19/25/15 30/24/15 29/26/15
f 18/27/16 29/28/16 28/29/16
f 16/30/17 28/31/17 27/32/17
f 15/33/18 27/34/18 26/35/18
f 14/36/19 26/35/19 25/37/19
f 33/38/20 13/39/20 25/37/20
f 25/40/21 3/41/21 1/16/21
f 3/41/22 26/42/22 4/43/22
f 27/44/23 5/45/23 4/43/23
f 5/45/24 28/46/24 8/14/24
f 29/47/25 9/48/25 8/14/25
f 9/48/26 31/49/26 11/15/26
f 32/50/27 12/51/27 11/15/27
f 12/51/28 33/52/28 1/16/28
f 42/53/29 24/54/29 23/55/29
f 41/56/30 23/55/30 22/57/30
f 40/58/31 22/57/31 21/59/31
f 40/60/32 21/61/32 20/62/32
f 39/63/33 20/62/33 19/64/33
f 38/65/34 19/64/34 18/66/34
f 37/67/35 18/66/35 17/68/35
f 37/69/36 17/70/36 16/71/36
f 36/72/37 16/71/37 15/73/37
f 35/74/38 15/73/38 14/75/38
f 34/76/39 14/75/39 13/77/39
f 34/78/40 13/79/40 24/54/40
f 2/1/41 6/6/41 36/5/41
f 6/6/42 7/9/42 38/8/42
f 7/9/43 10/12/43 40/11/43
f 2/1/44 10/12/44 7/9/44
f 10/12/45 2/1/45 42/3/45
f 1/16/46 3/41/46 4/43/46
f 4/43/47 5/45/47 8/14/47
f 8/14/48 9/48/48 11/15/48
f 11/15/49 12/51/49 1/16/49
f 1/16/11 4/43/11 8/14/11
f 23/80/50 24/81/50 33/38/50
f 32/22/51 22/21/51 23/82/51
f 31/20/52 21/83/52 22/21/52
f 20/23/53 21/83/53 31/20/53
f 30/24/54 19/25/54 20/23/54
f 29/26/55 18/84/55 19/25/55
f 17/85/56 18/86/56 28/87/56
f 28/87/57 16/88/57 17/85/57
f 27/34/58 15/33/58 16/89/58
f 14/36/59 15/33/59 26/35/59
f 25/37/60 13/39/60 14/36/60
f 33/38/61 24/81/61 13/39/61
f 33/52/62 25/40/62 1/16/62
f 3/41/63 25/40/63 26/42/63
f 4/43/64 26/42/64 27/44/64
f 27/44/65 28/46/65 5/45/65
f 8/14/66 28/46/66 29/47/66
f 29/47/67 30/90/67 9/48/67
f 9/48/68 30/90/68 31/49/68
f 31/49/69 32/50/69 11/15/69
f 12/51/70 32/50/70 33/52/70
f 41/56/71 42/53/71 23/55/71
f 22/57/72 40/58/72 41/56/72
f 39/63/73 40/60/73 20/62/73
f 19/64/74 38/65/74 39/63/74
f 18/66/75 37/67/75 38/65/75
f 36/72/76 37/69/76 16/71/76
f 35/74/77 36/72/77 15/73/77
f 34/76/78 35/74/78 14/75/78
f 24/54/79 42/53/79 34/78/79
