# Blender 4.1.1
# www.blender.org
mtllib lever.mtl
o 円柱
v 0.000000 -1.917999 -0.046521
v 0.000000 -0.581108 0.782741
v 0.071670 -1.939811 -0.011358
v 0.071670 -0.602919 0.817905
v 0.071670 -1.983433 0.058969
v 0.071670 -0.646542 0.888231
v 0.000000 -2.005245 0.094132
v 0.000000 -0.668353 0.923394
v -0.071670 -1.983433 0.058969
v -0.071670 -0.646542 0.888231
v -0.071670 -1.939811 -0.011358
v -0.071670 -0.602919 0.817905
v 0.261320 -0.101891 0.869870
v 0.369563 -0.358885 0.583083
v 0.261320 -0.729993 0.480263
v 0.369563 -0.239637 1.091938
v 0.522641 -0.553689 0.897134
v 0.369563 -0.867740 0.702331
v 0.261320 -0.377384 1.314006
v 0.369563 -0.748492 1.211186
v 0.261320 -1.005487 0.924399
v 0.000000 -0.434441 1.405989
v 0.000000 -0.829182 1.341270
v 0.000000 -1.062544 1.016382
v -0.261320 -0.377384 1.314006
v -0.369563 -0.748492 1.211186
v -0.261320 -1.005487 0.924399
v 0.000000 -0.997825 0.621641
v -0.369563 -0.239637 1.091938
v -0.522641 -0.553689 0.897134
v -0.369563 -0.867740 0.702331
v -0.261320 -0.101891 0.869870
v -0.369563 -0.358885 0.583083
v -0.261320 -0.729993 0.480263
v 0.000000 -0.109553 1.172628
v 0.000000 -0.044834 0.777886
v 0.000000 -0.278195 0.452998
v 0.000000 -0.672937 0.388279
v 0.844621 -1.746614 -0.607959
v 0.607959 -1.746614 -0.844621
v 0.775304 -1.746614 -0.775304
v 0.607959 -2.016892 -0.844621
v 0.844621 -2.016892 -0.607959
v 0.775304 -2.016892 -0.775304
v 0.607959 -1.746614 0.844621
v 0.844621 -1.746614 0.607960
v 0.775304 -1.746614 0.775304
v 0.844621 -2.016892 0.607960
v 0.607959 -2.016892 0.844621
v 0.775304 -2.016892 0.775304
v -0.607959 -1.746614 -0.844621
v -0.844621 -1.746614 -0.607959
v -0.775304 -1.746614 -0.775304
v -0.844621 -2.016892 -0.607959
v -0.607959 -2.016892 -0.844621
v -0.775304 -2.016892 -0.775304
v -0.844621 -1.746614 0.607960
v -0.607959 -1.746614 0.844621
v -0.775304 -1.746614 0.775304
v -0.607959 -2.016892 0.844621
v -0.844621 -2.016892 0.607960
v -0.775304 -2.016892 0.775304
v -0.126645 -1.746614 -0.787231
v 0.126645 -1.746614 -0.787231
v 0.126645 -1.746614 0.787231
v -0.126645 -1.746614 0.787231
v -0.184035 -1.746614 -0.844621
v -0.184035 -1.746614 0.844621
v 0.184035 -1.746614 -0.844621
v 0.184035 -1.746614 0.844621
v -0.126645 -1.977390 -0.787231
v -0.126645 -1.977391 0.787231
v 0.126645 -1.977390 -0.787231
v 0.126645 -1.977391 0.787231
vn 0.5000 0.4565 -0.7359
vn 1.0000 -0.0000 -0.0000
vn 0.5000 -0.4565 0.7359
vn -0.5000 -0.4565 0.7359
vn -0.0000 0.8498 0.5271
vn -1.0000 -0.0000 -0.0000
vn -0.5000 0.4565 -0.7359
vn -0.0000 -0.8498 -0.5271
vn 0.3574 0.1511 -0.9216
vn 0.1566 0.9747 0.1598
vn 0.1566 -0.5762 -0.8022
vn 0.3574 0.7585 -0.5449
vn 0.8629 -0.1153 -0.4921
vn 0.3780 0.8579 0.3479
vn 0.3780 -0.6929 -0.6140
vn 0.8629 0.4921 -0.1153
vn 0.8629 -0.4921 0.1153
vn 0.3780 0.6929 0.6140
vn 0.3780 -0.8579 -0.3479
vn 0.8629 0.1153 0.4921
vn 0.3574 -0.7585 0.5449
vn 0.1566 0.5762 0.8022
vn 0.1566 -0.9747 -0.1598
vn 0.3574 -0.1511 0.9216
vn -0.3574 -0.7585 0.5449
vn -0.1566 0.5762 0.8022
vn -0.1566 -0.9747 -0.1598
vn -0.3574 -0.1511 0.9216
vn -0.8629 -0.4921 0.1153
vn -0.3780 0.6929 0.6140
vn -0.3780 -0.8579 -0.3479
vn -0.8629 0.1153 0.4921
vn -0.8629 0.4921 -0.1153
vn -0.8629 -0.1153 -0.4921
vn -0.3780 0.8579 0.3479
vn -0.3780 -0.6929 -0.6140
vn -0.1566 -0.5762 -0.8022
vn -0.3574 0.7585 -0.5449
vn -0.3574 0.1511 -0.9216
vn -0.1566 0.9747 0.1598
vn -0.0000 -1.0000 -0.0000
vn -0.0000 -0.0000 1.0000
vn 0.9239 -0.0000 -0.3827
vn 0.3827 -0.0000 -0.9239
vn -0.3827 -0.0000 0.9239
vn -0.9239 -0.0000 0.3827
vn 0.3827 -0.0000 0.9239
vn 0.9239 -0.0000 0.3827
vn -0.3827 -0.0000 -0.9239
vn -0.9239 -0.0000 -0.3827
vn -0.0000 1.0000 -0.0000
vn -0.0000 -0.0000 -1.0000
vt 0.932687 0.530052
vt 0.878615 0.548076
vt 0.878615 0.530052
vt 0.932687 0.548076
vt 0.878615 0.566100
vt 0.932687 0.566100
vt 0.878615 0.584124
vt 0.932687 0.584124
vt 0.878615 0.602148
vt 0.897732 0.803900
vt 0.878615 0.770788
vt 0.916850 0.770788
vt 0.932687 0.602148
vt 0.878615 0.620173
vt 0.932687 0.620173
vt 0.878615 0.638197
vt 0.916850 0.710012
vt 0.897733 0.676899
vt 0.878615 0.710011
vt 0.309237 0.740797
vt 0.260923 0.644169
vt 0.309237 0.644167
vt 0.309237 0.837425
vt 0.285080 0.934055
vt 0.260923 0.837425
vt 0.285080 0.547539
vt 0.260923 0.740797
vt 0.212609 0.740797
vt 0.212609 0.644167
vt 0.236766 0.934055
vt 0.212609 0.837425
vt 0.236766 0.547539
vt 0.164294 0.644167
vt 0.188451 0.934055
vt 0.164294 0.837425
vt 0.188451 0.547539
vt 0.164294 0.740797
vt 0.115980 0.644167
vt 0.140137 0.934055
vt 0.115980 0.837425
vt 0.140137 0.547539
vt 0.115980 0.740797
vt 0.067665 0.644167
vt 0.091822 0.934055
vt 0.067665 0.837425
vt 0.091822 0.547539
vt 0.067665 0.740797
vt 0.019351 0.644167
vt 0.043508 0.934055
vt 0.019351 0.837425
vt 0.043508 0.547539
vt 0.019351 0.740797
vt 0.405866 0.837425
vt 0.357552 0.740797
vt 0.405866 0.740797
vt 0.357552 0.644167
vt 0.405866 0.644167
vt 0.381709 0.934055
vt 0.357552 0.837425
vt 0.381709 0.547539
vt 0.333395 0.547539
vt 0.333395 0.934055
vt 0.456185 0.593180
vt 0.824167 0.548542
vt 0.786153 0.980649
vt 0.567868 0.094329
vt 0.812762 0.038234
vt 0.533062 0.114789
vt 0.482780 0.342640
vt 0.471995 0.262967
vt 0.492982 0.171302
vt 0.827292 0.480964
vt 0.612627 0.472222
vt 0.579950 0.460472
vt 0.861265 0.491350
vt 0.863701 0.469935
vt 0.903468 0.475604
vt 0.883987 0.426861
vt 0.924065 0.429253
vt 0.456185 0.149005
vt 0.503043 0.142318
vt 0.507963 0.096485
vt 0.507445 0.449828
vt 0.549528 0.443459
vt 0.562820 0.479983
vt 0.885454 0.084672
vt 0.898906 0.029853
vt 0.926835 0.079116
vt 0.855582 0.042871
vt 0.848807 0.019351
vt 0.392593 0.491321
vt 0.069274 0.485091
vt 0.019411 0.416268
vt 0.926835 0.204422
vt 0.925784 0.308636
vt 0.417483 0.202540
vt 0.019351 0.111820
vt 0.069250 0.042999
vt 0.042059 0.241435
vt 0.037649 0.286337
vt 0.042045 0.286761
vt 0.401711 0.305032
vt 0.028494 0.300721
vt 0.401702 0.223176
vt 0.417483 0.325714
vt 0.028393 0.227397
vt 0.037656 0.241863
vt 0.365960 0.297611
vt 0.365958 0.230598
vt 0.916850 0.792863
vt 0.878615 0.792863
vt 0.897732 0.759750
vt 0.932687 0.638197
vt 0.897732 0.721049
vt 0.916850 0.687937
vt 0.878615 0.687936
vt 0.509945 0.980649
vt 0.471931 0.962159
vt 0.456185 0.917521
vt 0.471931 0.548542
vt 0.509945 0.530052
vt 0.786153 0.530052
vt 0.839913 0.593180
vt 0.839913 0.917521
vt 0.824167 0.962159
vt 0.533737 0.421483
vt 0.411550 0.445042
vt 0.351508 0.508838
vt 0.031916 0.463145
vt 0.351558 0.019351
vt 0.392646 0.036887
vt 0.411591 0.083183
vt 0.031875 0.064936
s 0
usemtl Material
f 2/1/1 3/2/1 1/3/1
f 4/4/2 5/5/2 3/2/2
f 6/6/3 7/7/3 5/5/3
f 8/8/4 9/9/4 7/7/4
f 2/10/5 10/11/5 6/12/5
f 10/13/6 11/14/6 9/9/6
f 12/15/7 1/16/7 11/14/7
f 3/17/8 7/18/8 11/19/8
f 37/20/9 15/21/9 38/22/9
f 36/23/10 35/24/10 13/25/10
f 28/26/11 38/22/11 15/21/11
f 36/23/12 14/27/12 37/20/12
f 15/21/13 17/28/13 18/29/13
f 13/25/14 35/30/14 16/31/14
f 28/32/15 15/21/15 18/29/15
f 13/25/16 17/28/16 14/27/16
f 17/28/17 21/33/17 18/29/17
f 16/31/18 35/34/18 19/35/18
f 28/36/19 18/29/19 21/33/19
f 17/28/20 19/35/20 20/37/20
f 20/37/21 24/38/21 21/33/21
f 19/35/22 35/39/22 22/40/22
f 28/41/23 21/33/23 24/38/23
f 20/37/24 22/40/24 23/42/24
f 23/42/25 27/43/25 24/38/25
f 22/40/26 35/44/26 25/45/26
f 28/46/27 24/38/27 27/43/27
f 22/40/28 26/47/28 23/42/28
f 26/47/29 31/48/29 27/43/29
f 25/45/30 35/49/30 29/50/30
f 28/51/31 27/43/31 31/48/31
f 26/47/32 29/50/32 30/52/32
f 29/53/33 33/54/33 30/55/33
f 30/55/34 34/56/34 31/57/34
f 29/53/35 35/58/35 32/59/35
f 28/60/36 31/57/36 34/56/36
f 28/61/37 34/56/37 38/22/37
f 33/54/38 36/23/38 37/20/38
f 33/54/39 38/22/39 34/56/39
f 32/59/40 35/62/40 36/23/40
f 42/63/41 50/64/41 61/65/41
f 57/66/6 54/67/6 61/68/6
f 70/69/42 68/70/42 60/71/42
f 43/72/2 46/73/2 48/74/2
f 39/75/43 44/76/43 41/77/43
f 41/77/44 42/78/44 40/79/44
f 58/80/45 62/81/45 60/71/45
f 59/82/46 61/68/46 62/81/46
f 45/83/47 50/84/47 47/85/47
f 47/85/48 48/74/48 46/73/48
f 55/86/49 53/87/49 51/88/49
f 56/89/50 52/90/50 53/87/50
f 53/91/51 57/92/51 58/93/51
f 67/94/52 69/95/52 42/78/52
f 69/96/51 45/97/51 46/98/51
f 65/99/52 72/100/52 66/101/52
f 63/102/51 68/103/51 66/101/51
f 64/104/51 67/105/51 63/102/51
f 66/101/51 70/106/51 65/99/51
f 65/99/51 69/96/51 64/104/51
f 74/107/51 71/108/51 72/100/51
f 66/101/2 71/108/2 63/102/2
f 65/99/6 73/109/6 74/107/6
f 63/102/42 73/109/42 64/104/42
f 2/1/1 4/4/1 3/2/1
f 4/4/2 6/6/2 5/5/2
f 6/6/3 8/8/3 7/7/3
f 8/8/4 10/13/4 9/9/4
f 6/12/5 4/110/5 2/10/5
f 2/10/5 12/111/5 10/11/5
f 10/11/5 8/112/5 6/12/5
f 10/13/6 12/15/6 11/14/6
f 12/15/7 2/113/7 1/16/7
f 11/19/8 1/114/8 3/17/8
f 3/17/8 5/115/8 7/18/8
f 7/18/8 9/116/8 11/19/8
f 37/20/9 14/27/9 15/21/9
f 36/23/12 13/25/12 14/27/12
f 15/21/13 14/27/13 17/28/13
f 13/25/16 16/31/16 17/28/16
f 17/28/17 20/37/17 21/33/17
f 17/28/20 16/31/20 19/35/20
f 20/37/21 23/42/21 24/38/21
f 20/37/24 19/35/24 22/40/24
f 23/42/25 26/47/25 27/43/25
f 22/40/28 25/45/28 26/47/28
f 26/47/29 30/52/29 31/48/29
f 26/47/32 25/45/32 29/50/32
f 29/53/33 32/59/33 33/54/33
f 30/55/34 33/54/34 34/56/34
f 33/54/38 32/59/38 36/23/38
f 33/54/39 37/20/39 38/22/39
f 61/65/41 54/117/41 56/118/41
f 56/118/41 55/119/41 42/63/41
f 42/63/41 44/120/41 43/121/41
f 43/121/41 48/122/41 50/64/41
f 50/64/41 49/123/41 60/124/41
f 60/124/41 62/125/41 61/65/41
f 61/65/41 56/118/41 42/63/41
f 42/63/41 43/121/41 50/64/41
f 50/64/41 60/124/41 61/65/41
f 57/66/6 52/90/6 54/67/6
f 60/71/42 49/126/42 45/83/42
f 60/71/42 45/83/42 70/69/42
f 68/70/42 58/80/42 60/71/42
f 43/72/2 39/75/2 46/73/2
f 39/75/43 43/72/43 44/76/43
f 41/77/44 44/76/44 42/78/44
f 58/80/45 59/82/45 62/81/45
f 59/82/46 57/66/46 61/68/46
f 45/83/47 49/126/47 50/84/47
f 47/85/48 50/84/48 48/74/48
f 55/86/49 56/89/49 53/87/49
f 56/89/50 54/67/50 52/90/50
f 58/93/51 68/103/51 67/105/51
f 67/105/51 51/127/51 53/91/51
f 53/91/51 52/128/51 57/92/51
f 57/92/51 59/129/51 58/93/51
f 58/93/51 67/105/51 53/91/51
f 42/78/52 55/86/52 51/88/52
f 42/78/52 51/88/52 67/94/52
f 69/95/52 40/79/52 42/78/52
f 46/98/51 39/130/51 41/131/51
f 41/131/51 40/132/51 69/96/51
f 69/96/51 70/106/51 45/97/51
f 45/97/51 47/133/51 46/98/51
f 46/98/51 41/131/51 69/96/51
f 65/99/52 74/107/52 72/100/52
f 63/102/51 67/105/51 68/103/51
f 64/104/51 69/96/51 67/105/51
f 66/101/51 68/103/51 70/106/51
f 65/99/51 70/106/51 69/96/51
f 74/107/51 73/109/51 71/108/51
f 66/101/2 72/100/2 71/108/2
f 65/99/6 64/104/6 73/109/6
f 63/102/42 71/108/42 73/109/42
