# Blender 4.3.2
# www.blender.org
mtllib lever.mtl
o 立方体.001
v -0.073349 -1.797829 0.144038
v -0.073349 0.120855 -0.607386
v -0.073349 -1.851324 0.007442
v -0.073349 0.067359 -0.743982
v 0.073349 -1.797829 0.144038
v 0.073349 0.120855 -0.607386
v 0.073349 -1.851324 0.007442
v 0.073349 0.067359 -0.743982
v -0.790571 -2.198665 0.790570
v -0.790571 -1.606363 0.790570
v -0.790571 -2.198665 -0.790570
v -0.790571 -1.606363 -0.790570
v 0.790571 -2.198665 0.790570
v 0.790571 -1.606363 0.790570
v 0.790571 -2.198665 -0.790570
v 0.790571 -1.606363 -0.790570
vn -1.0000 -0.0000 -0.0000
vn -0.0000 -0.3647 -0.9311
vn 1.0000 -0.0000 -0.0000
vn -0.0000 0.3647 0.9311
vn -0.0000 -0.9311 0.3647
vn -0.0000 0.9311 -0.3647
vn -0.0000 -0.0000 -1.0000
vn -0.0000 -0.0000 1.0000
vn -0.0000 -1.0000 -0.0000
vn -0.0000 1.0000 -0.0000
vt 0.625000 0.000000
vt 0.375000 0.250000
vt 0.375000 0.000000
vt 0.625000 0.250000
vt 0.375000 0.500000
vt 0.625000 0.500000
vt 0.375000 0.750000
vt 0.625000 0.750000
vt 0.375000 1.000000
vt 0.125000 0.750000
vt 0.125000 0.500000
vt 0.875000 0.500000
vt 0.625000 1.000000
vt 0.875000 0.750000
s 0
f 2/1/1 3/2/1 1/3/1
f 4/4/2 7/5/2 3/2/2
f 8/6/3 5/7/3 7/5/3
f 6/8/4 1/9/4 5/7/4
f 7/5/5 1/10/5 3/11/5
f 4/12/6 6/8/6 8/6/6
f 10/1/1 11/2/1 9/3/1
f 12/4/7 15/5/7 11/2/7
f 16/6/3 13/7/3 15/5/3
f 14/8/8 9/9/8 13/7/8
f 15/5/9 9/10/9 11/11/9
f 12/12/10 14/8/10 16/6/10
f 2/1/1 4/4/1 3/2/1
f 4/4/2 8/6/2 7/5/2
f 8/6/3 6/8/3 5/7/3
f 6/8/4 2/13/4 1/9/4
f 7/5/5 5/7/5 1/10/5
f 4/12/6 2/14/6 6/8/6
f 10/1/1 12/4/1 11/2/1
f 12/4/7 16/6/7 15/5/7
f 16/6/3 14/8/3 13/7/3
f 14/8/8 10/13/8 9/9/8
f 15/5/9 13/7/9 9/10/9
f 12/12/10 10/14/10 14/8/10
