{
	"asset":{
		"generator":"Khronos glTF Blender I/O v4.2.57",
		"version":"2.0"
	},
	"scene":0,
	"scenes":[
		{
			"name":"Scene",
			"nodes":[
				6
			]
		}
	],
	"nodes":[
		{
			"name":"Tail",
			"rotation":[
				0.001838277792558074,
				0,
				0,
				0.9999983310699463
			],
			"translation":[
				3.62616583157883e-18,
				2.4815404415130615,
				0.030618101358413696
			]
		},
		{
			"children":[
				0
			],
			"name":"Torso3",
			"rotation":[
				3.287568688392639e-05,
				0,
				0,
				1
			],
			"translation":[
				3.626166245169136e-18,
				2.3825016021728516,
				0.026536863297224045
			]
		},
		{
			"children":[
				1
			],
			"name":"Torso2",
			"rotation":[
				-0.00047489922144450247,
				0,
				0,
				0.9999998807907104
			],
			"scale":[
				1,
				0.9999998211860657,
				0.9999998807907104
			],
			"translation":[
				3.62616583157883e-18,
				2.5305604934692383,
				0.02597859501838684
			]
		},
		{
			"children":[
				2
			],
			"name":"Torso1",
			"rotation":[
				-0.0013962554512545466,
				0,
				0,
				0.9999990463256836
			],
			"translation":[
				-3.626166245169136e-18,
				2.776590347290039,
				-0.008581881411373615
			]
		},
		{
			"children":[
				3
			],
			"name":"Head",
			"rotation":[
				-0.7117506861686707,
				0,
				0,
				0.7024322152137756
			],
			"translation":[
				0,
				0.048992402851581573,
				2.025019407272339
			]
		},
		{
			"mesh":0,
			"name":"\u7acb\u65b9\u4f53",
			"skin":0
		},
		{
			"children":[
				5,
				4
			],
			"name":"\u30a2\u30fc\u30de\u30c1\u30e5\u30a2"
		}
	],
	"animations":[
		{
			"channels":[
				{
					"sampler":0,
					"target":{
						"node":4,
						"path":"translation"
					}
				},
				{
					"sampler":1,
					"target":{
						"node":4,
						"path":"rotation"
					}
				},
				{
					"sampler":2,
					"target":{
						"node":4,
						"path":"scale"
					}
				},
				{
					"sampler":3,
					"target":{
						"node":3,
						"path":"translation"
					}
				},
				{
					"sampler":4,
					"target":{
						"node":3,
						"path":"rotation"
					}
				},
				{
					"sampler":5,
					"target":{
						"node":3,
						"path":"scale"
					}
				},
				{
					"sampler":6,
					"target":{
						"node":2,
						"path":"translation"
					}
				},
				{
					"sampler":7,
					"target":{
						"node":2,
						"path":"rotation"
					}
				},
				{
					"sampler":8,
					"target":{
						"node":2,
						"path":"scale"
					}
				},
				{
					"sampler":9,
					"target":{
						"node":1,
						"path":"translation"
					}
				},
				{
					"sampler":10,
					"target":{
						"node":1,
						"path":"rotation"
					}
				},
				{
					"sampler":11,
					"target":{
						"node":1,
						"path":"scale"
					}
				},
				{
					"sampler":12,
					"target":{
						"node":0,
						"path":"translation"
					}
				},
				{
					"sampler":13,
					"target":{
						"node":0,
						"path":"rotation"
					}
				},
				{
					"sampler":14,
					"target":{
						"node":0,
						"path":"scale"
					}
				}
			],
			"name":"\u30a2\u30fc\u30de\u30c1\u30e5\u30a2\u30a2\u30af\u30b7\u30e7\u30f3",
			"samplers":[
				{
					"input":19,
					"interpolation":"LINEAR",
					"output":20
				},
				{
					"input":19,
					"interpolation":"LINEAR",
					"output":21
				},
				{
					"input":22,
					"interpolation":"STEP",
					"output":23
				},
				{
					"input":22,
					"interpolation":"LINEAR",
					"output":24
				},
				{
					"input":19,
					"interpolation":"LINEAR",
					"output":25
				},
				{
					"input":22,
					"interpolation":"STEP",
					"output":26
				},
				{
					"input":22,
					"interpolation":"LINEAR",
					"output":27
				},
				{
					"input":19,
					"interpolation":"LINEAR",
					"output":28
				},
				{
					"input":22,
					"interpolation":"STEP",
					"output":29
				},
				{
					"input":22,
					"interpolation":"LINEAR",
					"output":30
				},
				{
					"input":19,
					"interpolation":"LINEAR",
					"output":31
				},
				{
					"input":22,
					"interpolation":"LINEAR",
					"output":32
				},
				{
					"input":22,
					"interpolation":"LINEAR",
					"output":33
				},
				{
					"input":19,
					"interpolation":"LINEAR",
					"output":34
				},
				{
					"input":22,
					"interpolation":"LINEAR",
					"output":35
				}
			]
		}
	],
	"materials":[
		{
			"doubleSided":true,
			"name":"\u30de\u30c6\u30ea\u30a2\u30eb.001",
			"pbrMetallicRoughness":{
				"baseColorTexture":{
					"index":0
				},
				"metallicFactor":0,
				"roughnessFactor":0.5
			}
		},
		{
			"doubleSided":true,
			"name":"Material.001",
			"pbrMetallicRoughness":{
				"baseColorTexture":{
					"index":1
				},
				"metallicFactor":0,
				"roughnessFactor":0.5
			}
		},
		{
			"doubleSided":true,
			"name":"\u30de\u30c6\u30ea\u30a2\u30eb",
			"pbrMetallicRoughness":{
				"baseColorTexture":{
					"index":2
				},
				"metallicFactor":0,
				"roughnessFactor":0.5
			}
		}
	],
	"meshes":[
		{
			"name":"\u7acb\u65b9\u4f53",
			"primitives":[
				{
					"attributes":{
						"POSITION":0,
						"NORMAL":1,
						"TEXCOORD_0":2,
						"JOINTS_0":3,
						"WEIGHTS_0":4
					},
					"indices":5,
					"material":0
				},
				{
					"attributes":{
						"POSITION":6,
						"NORMAL":7,
						"TEXCOORD_0":8,
						"JOINTS_0":9,
						"WEIGHTS_0":10
					},
					"indices":11,
					"material":1
				},
				{
					"attributes":{
						"POSITION":12,
						"NORMAL":13,
						"TEXCOORD_0":14,
						"JOINTS_0":15,
						"WEIGHTS_0":16
					},
					"indices":17,
					"material":2
				}
			]
		}
	],
	"textures":[
		{
			"sampler":0,
			"source":0
		},
		{
			"sampler":0,
			"source":1
		},
		{
			"sampler":0,
			"source":2
		}
	],
	"images":[
		{
			"mimeType":"image/png",
			"name":"Player_Tail",
			"uri":"Player_Tail.png"
		},
		{
			"mimeType":"image/png",
			"name":"Player_Head",
			"uri":"Player_Head.png"
		},
		{
			"mimeType":"image/png",
			"name":"Player_Torso",
			"uri":"Player_Torso.png"
		}
	],
	"skins":[
		{
			"inverseBindMatrices":18,
			"joints":[
				4,
				3,
				2,
				1,
				0
			],
			"name":"\u30a2\u30fc\u30de\u30c1\u30e5\u30a2"
		}
	],
	"accessors":[
		{
			"bufferView":0,
			"componentType":5126,
			"count":104,
			"max":[
				1.2910410165786743,
				1.387848973274231,
				-7.802302360534668
			],
			"min":[
				-1.2910410165786743,
				-1.307371735572815,
				-12.986316680908203
			],
			"type":"VEC3"
		},
		{
			"bufferView":1,
			"componentType":5126,
			"count":104,
			"type":"VEC3"
		},
		{
			"bufferView":2,
			"componentType":5126,
			"count":104,
			"type":"VEC2"
		},
		{
			"bufferView":3,
			"componentType":5121,
			"count":104,
			"type":"VEC4"
		},
		{
			"bufferView":4,
			"componentType":5126,
			"count":104,
			"type":"VEC4"
		},
		{
			"bufferView":5,
			"componentType":5123,
			"count":144,
			"type":"SCALAR"
		},
		{
			"bufferView":6,
			"componentType":5126,
			"count":160,
			"max":[
				1.2910399436950684,
				1.2747092247009277,
				2.124922752380371
			],
			"min":[
				-1.2910399436950684,
				-1.3073707818984985,
				-0.28144559264183044
			],
			"type":"VEC3"
		},
		{
			"bufferView":7,
			"componentType":5126,
			"count":160,
			"type":"VEC3"
		},
		{
			"bufferView":8,
			"componentType":5126,
			"count":160,
			"type":"VEC2"
		},
		{
			"bufferView":9,
			"componentType":5121,
			"count":160,
			"type":"VEC4"
		},
		{
			"bufferView":10,
			"componentType":5126,
			"count":160,
			"type":"VEC4"
		},
		{
			"bufferView":11,
			"componentType":5123,
			"count":240,
			"type":"SCALAR"
		},
		{
			"bufferView":12,
			"componentType":5126,
			"count":192,
			"max":[
				1.2910410165786743,
				1.307371973991394,
				-0.6984032392501831
			],
			"min":[
				-1.2910410165786743,
				-1.2747102975845337,
				-7.499659061431885
			],
			"type":"VEC3"
		},
		{
			"bufferView":13,
			"componentType":5126,
			"count":192,
			"type":"VEC3"
		},
		{
			"bufferView":14,
			"componentType":5126,
			"count":192,
			"type":"VEC2"
		},
		{
			"bufferView":15,
			"componentType":5121,
			"count":192,
			"type":"VEC4"
		},
		{
			"bufferView":16,
			"componentType":5126,
			"count":192,
			"type":"VEC4"
		},
		{
			"bufferView":17,
			"componentType":5123,
			"count":432,
			"type":"SCALAR"
		},
		{
			"bufferView":18,
			"componentType":5126,
			"count":5,
			"type":"MAT4"
		},
		{
			"bufferView":19,
			"componentType":5126,
			"count":141,
			"max":[
				2.8
			],
			"min":[
				0
			],
			"type":"SCALAR"
		},
		{
			"bufferView":20,
			"componentType":5126,
			"count":141,
			"type":"VEC3"
		},
		{
			"bufferView":21,
			"componentType":5126,
			"count":141,
			"type":"VEC4"
		},
		{
			"bufferView":22,
			"componentType":5126,
			"count":2,
			"max":[
				2.8
			],
			"min":[
				0
			],
			"type":"SCALAR"
		},
		{
			"bufferView":23,
			"componentType":5126,
			"count":2,
			"type":"VEC3"
		},
		{
			"bufferView":24,
			"componentType":5126,
			"count":2,
			"type":"VEC3"
		},
		{
			"bufferView":25,
			"componentType":5126,
			"count":141,
			"type":"VEC4"
		},
		{
			"bufferView":26,
			"componentType":5126,
			"count":2,
			"type":"VEC3"
		},
		{
			"bufferView":27,
			"componentType":5126,
			"count":2,
			"type":"VEC3"
		},
		{
			"bufferView":28,
			"componentType":5126,
			"count":141,
			"type":"VEC4"
		},
		{
			"bufferView":29,
			"componentType":5126,
			"count":2,
			"type":"VEC3"
		},
		{
			"bufferView":30,
			"componentType":5126,
			"count":2,
			"type":"VEC3"
		},
		{
			"bufferView":31,
			"componentType":5126,
			"count":141,
			"type":"VEC4"
		},
		{
			"bufferView":32,
			"componentType":5126,
			"count":2,
			"type":"VEC3"
		},
		{
			"bufferView":33,
			"componentType":5126,
			"count":2,
			"type":"VEC3"
		},
		{
			"bufferView":34,
			"componentType":5126,
			"count":141,
			"type":"VEC4"
		},
		{
			"bufferView":35,
			"componentType":5126,
			"count":2,
			"type":"VEC3"
		}
	],
	"bufferViews":[
		{
			"buffer":0,
			"byteLength":1248,
			"byteOffset":0,
			"target":34962
		},
		{
			"buffer":0,
			"byteLength":1248,
			"byteOffset":1248,
			"target":34962
		},
		{
			"buffer":0,
			"byteLength":832,
			"byteOffset":2496,
			"target":34962
		},
		{
			"buffer":0,
			"byteLength":416,
			"byteOffset":3328,
			"target":34962
		},
		{
			"buffer":0,
			"byteLength":1664,
			"byteOffset":3744,
			"target":34962
		},
		{
			"buffer":0,
			"byteLength":288,
			"byteOffset":5408,
			"target":34963
		},
		{
			"buffer":0,
			"byteLength":1920,
			"byteOffset":5696,
			"target":34962
		},
		{
			"buffer":0,
			"byteLength":1920,
			"byteOffset":7616,
			"target":34962
		},
		{
			"buffer":0,
			"byteLength":1280,
			"byteOffset":9536,
			"target":34962
		},
		{
			"buffer":0,
			"byteLength":640,
			"byteOffset":10816,
			"target":34962
		},
		{
			"buffer":0,
			"byteLength":2560,
			"byteOffset":11456,
			"target":34962
		},
		{
			"buffer":0,
			"byteLength":480,
			"byteOffset":14016,
			"target":34963
		},
		{
			"buffer":0,
			"byteLength":2304,
			"byteOffset":14496,
			"target":34962
		},
		{
			"buffer":0,
			"byteLength":2304,
			"byteOffset":16800,
			"target":34962
		},
		{
			"buffer":0,
			"byteLength":1536,
			"byteOffset":19104,
			"target":34962
		},
		{
			"buffer":0,
			"byteLength":768,
			"byteOffset":20640,
			"target":34962
		},
		{
			"buffer":0,
			"byteLength":3072,
			"byteOffset":21408,
			"target":34962
		},
		{
			"buffer":0,
			"byteLength":864,
			"byteOffset":24480,
			"target":34963
		},
		{
			"buffer":0,
			"byteLength":320,
			"byteOffset":25344
		},
		{
			"buffer":0,
			"byteLength":564,
			"byteOffset":25664
		},
		{
			"buffer":0,
			"byteLength":1692,
			"byteOffset":26228
		},
		{
			"buffer":0,
			"byteLength":2256,
			"byteOffset":27920
		},
		{
			"buffer":0,
			"byteLength":8,
			"byteOffset":30176
		},
		{
			"buffer":0,
			"byteLength":24,
			"byteOffset":30184
		},
		{
			"buffer":0,
			"byteLength":24,
			"byteOffset":30208
		},
		{
			"buffer":0,
			"byteLength":2256,
			"byteOffset":30232
		},
		{
			"buffer":0,
			"byteLength":24,
			"byteOffset":32488
		},
		{
			"buffer":0,
			"byteLength":24,
			"byteOffset":32512
		},
		{
			"buffer":0,
			"byteLength":2256,
			"byteOffset":32536
		},
		{
			"buffer":0,
			"byteLength":24,
			"byteOffset":34792
		},
		{
			"buffer":0,
			"byteLength":24,
			"byteOffset":34816
		},
		{
			"buffer":0,
			"byteLength":2256,
			"byteOffset":34840
		},
		{
			"buffer":0,
			"byteLength":24,
			"byteOffset":37096
		},
		{
			"buffer":0,
			"byteLength":24,
			"byteOffset":37120
		},
		{
			"buffer":0,
			"byteLength":2256,
			"byteOffset":37144
		},
		{
			"buffer":0,
			"byteLength":24,
			"byteOffset":39400
		}
	],
	"samplers":[
		{
			"magFilter":9729,
			"minFilter":9987
		}
	],
	"buffers":[
		{
			"byteLength":39424,
			"uri":"Player_result.bin"
		}
	]
}
