{
	"asset":{
		"generator":"Khronos glTF Blender I/O v4.1.63",
		"version":"2.0"
	},
	"scene":0,
	"scenes":[
		{
			"name":"Scene",
			"nodes":[
				0
			]
		}
	],
	"nodes":[
		{
			"mesh":0,
			"name":"B"
		}
	],
	"meshes":[
		{
			"name":"SSS.005",
			"primitives":[
				{
					"attributes":{
						"POSITION":0,
						"NORMAL":1,
						"TEXCOORD_0":2
					},
					"indices":3
				}
			]
		}
	],
	"accessors":[
		{
			"bufferView":0,
			"componentType":5126,
			"count":696,
			"max":[
				0.3658536374568939,
				0.29232877492904663,
				0.06814676523208618
			],
			"min":[
				-0.3939962685108185,
				-0.30804648995399475,
				-0.08243387937545776
			],
			"type":"VEC3"
		},
		{
			"bufferView":1,
			"componentType":5126,
			"count":696,
			"type":"VEC3"
		},
		{
			"bufferView":2,
			"componentType":5126,
			"count":696,
			"type":"VEC2"
		},
		{
			"bufferView":3,
			"componentType":5123,
			"count":1356,
			"type":"SCALAR"
		}
	],
	"bufferViews":[
		{
			"buffer":0,
			"byteLength":8352,
			"byteOffset":0,
			"target":34962
		},
		{
			"buffer":0,
			"byteLength":8352,
			"byteOffset":8352,
			"target":34962
		},
		{
			"buffer":0,
			"byteLength":5568,
			"byteOffset":16704,
			"target":34962
		},
		{
			"buffer":0,
			"byteLength":2712,
			"byteOffset":22272,
			"target":34963
		}
	],
	"buffers":[
		{
			"byteLength":24984,
			"uri":"B.bin"
		}
	]
}
