{
	"asset":{
		"generator":"Khronos glTF Blender I/O v4.1.63",
		"version":"2.0"
	},
	"scene":0,
	"scenes":[
		{
			"name":"Scene",
			"nodes":[
				0
			]
		}
	],
	"nodes":[
		{
			"mesh":0,
			"name":"C"
		}
	],
	"meshes":[
		{
			"name":"SSS.006",
			"primitives":[
				{
					"attributes":{
						"POSITION":0,
						"NORMAL":1,
						"TEXCOORD_0":2
					},
					"indices":3
				}
			]
		}
	],
	"accessors":[
		{
			"bufferView":0,
			"componentType":5126,
			"count":675,
			"max":[
				0.39446529746055603,
				0.29981908202171326,
				0.06065646931529045
			],
			"min":[
				-0.4038461446762085,
				-0.30055615305900574,
				-0.08661086112260818
			],
			"type":"VEC3"
		},
		{
			"bufferView":1,
			"componentType":5126,
			"count":675,
			"type":"VEC3"
		},
		{
			"bufferView":2,
			"componentType":5126,
			"count":675,
			"type":"VEC2"
		},
		{
			"bufferView":3,
			"componentType":5123,
			"count":1320,
			"type":"SCALAR"
		}
	],
	"bufferViews":[
		{
			"buffer":0,
			"byteLength":8100,
			"byteOffset":0,
			"target":34962
		},
		{
			"buffer":0,
			"byteLength":8100,
			"byteOffset":8100,
			"target":34962
		},
		{
			"buffer":0,
			"byteLength":5400,
			"byteOffset":16200,
			"target":34962
		},
		{
			"buffer":0,
			"byteLength":2640,
			"byteOffset":21600,
			"target":34963
		}
	],
	"buffers":[
		{
			"byteLength":24240,
			"uri":"C.bin"
		}
	]
}
