{
	"asset":{
		"generator":"Khronos glTF Blender I/O v4.1.63",
		"version":"2.0"
	},
	"scene":0,
	"scenes":[
		{
			"name":"Scene",
			"nodes":[
				0
			]
		}
	],
	"nodes":[
		{
			"mesh":0,
			"name":"S"
		}
	],
	"meshes":[
		{
			"name":"SSS.004",
			"primitives":[
				{
					"attributes":{
						"POSITION":0,
						"NORMAL":1,
						"TEXCOORD_0":2
					},
					"indices":3
				}
			]
		}
	],
	"accessors":[
		{
			"bufferView":0,
			"componentType":5126,
			"count":1025,
			"max":[
				0.4038461744785309,
				0.2982773780822754,
				0.06219815835356712
			],
			"min":[
				-0.4038461446762085,
				-0.3020978569984436,
				-0.07026353478431702
			],
			"type":"VEC3"
		},
		{
			"bufferView":1,
			"componentType":5126,
			"count":1025,
			"type":"VEC3"
		},
		{
			"bufferView":2,
			"componentType":5126,
			"count":1025,
			"type":"VEC2"
		},
		{
			"bufferView":3,
			"componentType":5123,
			"count":1980,
			"type":"SCALAR"
		}
	],
	"bufferViews":[
		{
			"buffer":0,
			"byteLength":12300,
			"byteOffset":0,
			"target":34962
		},
		{
			"buffer":0,
			"byteLength":12300,
			"byteOffset":12300,
			"target":34962
		},
		{
			"buffer":0,
			"byteLength":8200,
			"byteOffset":24600,
			"target":34962
		},
		{
			"buffer":0,
			"byteLength":3960,
			"byteOffset":32800,
			"target":34963
		}
	],
	"buffers":[
		{
			"byteLength":36760,
			"uri":"S.bin"
		}
	]
}
