{
	"asset":{
		"generator":"Khronos glTF Blender I/O v4.1.63",
		"version":"2.0"
	},
	"scene":0,
	"scenes":[
		{
			"name":"Scene",
			"nodes":[
				0
			]
		}
	],
	"nodes":[
		{
			"mesh":0,
			"name":"SS"
		}
	],
	"meshes":[
		{
			"name":"SSS.002",
			"primitives":[
				{
					"attributes":{
						"POSITION":0,
						"NORMAL":1,
						"TEXCOORD_0":2
					},
					"indices":3
				}
			]
		}
	],
	"accessors":[
		{
			"bufferView":0,
			"componentType":5126,
			"count":2038,
			"max":[
				0.8233583569526672,
				0.298277348279953,
				0.062198322266340256
			],
			"min":[
				-0.8233582973480225,
				-0.302097886800766,
				-0.07524167001247406
			],
			"type":"VEC3"
		},
		{
			"bufferView":1,
			"componentType":5126,
			"count":2038,
			"type":"VEC3"
		},
		{
			"bufferView":2,
			"componentType":5126,
			"count":2038,
			"type":"VEC2"
		},
		{
			"bufferView":3,
			"componentType":5123,
			"count":3960,
			"type":"SCALAR"
		}
	],
	"bufferViews":[
		{
			"buffer":0,
			"byteLength":24456,
			"byteOffset":0,
			"target":34962
		},
		{
			"buffer":0,
			"byteLength":24456,
			"byteOffset":24456,
			"target":34962
		},
		{
			"buffer":0,
			"byteLength":16304,
			"byteOffset":48912,
			"target":34962
		},
		{
			"buffer":0,
			"byteLength":7920,
			"byteOffset":65216,
			"target":34963
		}
	],
	"buffers":[
		{
			"byteLength":73136,
			"uri":"SS.bin"
		}
	]
}
