{
	"asset":{
		"generator":"Khronos glTF Blender I/O v4.1.63",
		"version":"2.0"
	},
	"scene":0,
	"scenes":[
		{
			"name":"Scene",
			"nodes":[
				0
			]
		}
	],
	"nodes":[
		{
			"mesh":0,
			"name":"SSS"
		}
	],
	"meshes":[
		{
			"name":"SSS.001",
			"primitives":[
				{
					"attributes":{
						"POSITION":0,
						"NORMAL":1,
						"TEXCOORD_0":2
					},
					"indices":3
				}
			]
		}
	],
	"accessors":[
		{
			"bufferView":0,
			"componentType":5126,
			"count":3060,
			"max":[
				1.2428703308105469,
				0.298277348279953,
				0.06219847872853279
			],
			"min":[
				-1.242870569229126,
				-0.302097886800766,
				-0.0839482992887497
			],
			"type":"VEC3"
		},
		{
			"bufferView":1,
			"componentType":5126,
			"count":3060,
			"type":"VEC3"
		},
		{
			"bufferView":2,
			"componentType":5126,
			"count":3060,
			"type":"VEC2"
		},
		{
			"bufferView":3,
			"componentType":5123,
			"count":5940,
			"type":"SCALAR"
		}
	],
	"bufferViews":[
		{
			"buffer":0,
			"byteLength":36720,
			"byteOffset":0,
			"target":34962
		},
		{
			"buffer":0,
			"byteLength":36720,
			"byteOffset":36720,
			"target":34962
		},
		{
			"buffer":0,
			"byteLength":24480,
			"byteOffset":73440,
			"target":34962
		},
		{
			"buffer":0,
			"byteLength":11880,
			"byteOffset":97920,
			"target":34963
		}
	],
	"buffers":[
		{
			"byteLength":109800,
			"uri":"SSS.bin"
		}
	]
}
