{
	"asset":{
		"generator":"Khronos glTF Blender I/O v4.1.63",
		"version":"2.0"
	},
	"scene":0,
	"scenes":[
		{
			"name":"Scene",
			"nodes":[
				0
			]
		}
	],
	"nodes":[
		{
			"mesh":0,
			"name":"Cube"
		}
	],
	"materials":[
		{
			"doubleSided":true,
			"name":"Material",
			"pbrMetallicRoughness":{
				"baseColorTexture":{
					"index":0
				},
				"metallicFactor":0,
				"roughnessFactor":0.5
			}
		}
	],
	"meshes":[
		{
			"name":"Cube",
			"primitives":[
				{
					"attributes":{
						"POSITION":0,
						"NORMAL":1,
						"TEXCOORD_0":2
					},
					"indices":3,
					"material":0
				}
			]
		}
	],
	"textures":[
		{
			"sampler":0,
			"source":0
		}
	],
	"images":[
		{
			"mimeType":"image/png",
			"name":"colorDot",
			"uri":"colorDot.png"
		}
	],
	"accessors":[
		{
			"bufferView":0,
			"componentType":5126,
			"count":163216,
			"max":[
				1.0000001192092896,
				1,
				1.0000001192092896
			],
			"min":[
				-1.0000001192092896,
				-1,
				-1.0000001192092896
			],
			"type":"VEC3"
		},
		{
			"bufferView":1,
			"componentType":5126,
			"count":163216,
			"type":"VEC3"
		},
		{
			"bufferView":2,
			"componentType":5126,
			"count":163216,
			"type":"VEC2"
		},
		{
			"bufferView":3,
			"componentType":5125,
			"count":244824,
			"type":"SCALAR"
		}
	],
	"bufferViews":[
		{
			"buffer":0,
			"byteLength":1958592,
			"byteOffset":0,
			"target":34962
		},
		{
			"buffer":0,
			"byteLength":1958592,
			"byteOffset":1958592,
			"target":34962
		},
		{
			"buffer":0,
			"byteLength":1305728,
			"byteOffset":3917184,
			"target":34962
		},
		{
			"buffer":0,
			"byteLength":979296,
			"byteOffset":5222912,
			"target":34963
		}
	],
	"samplers":[
		{
			"magFilter":9729,
			"minFilter":9987
		}
	],
	"buffers":[
		{
			"byteLength":6202208,
			"uri":"stage.bin"
		}
	]
}
