{
	"asset":{
		"generator":"Khronos glTF Blender I/O v4.1.63",
		"version":"2.0"
	},
	"scene":0,
	"scenes":[
		{
			"name":"Scene",
			"nodes":[
				0,
				1,
				2,
				3,
				4,
				5,
				6,
				7,
				8,
				9,
				10,
				11
			]
		}
	],
	"nodes":[
		{
			"mesh":0,
			"name":"\u7acb\u65b9\u4f53.674"
		},
		{
			"mesh":1,
			"name":"\u7acb\u65b9\u4f53.816"
		},
		{
			"mesh":2,
			"name":"\u7acb\u65b9\u4f53.1053"
		},
		{
			"mesh":3,
			"name":"\u7acb\u65b9\u4f53.1401"
		},
		{
			"mesh":4,
			"name":"\u7acb\u65b9\u4f53.1589"
		},
		{
			"mesh":5,
			"name":"\u7acb\u65b9\u4f53.1907"
		},
		{
			"mesh":6,
			"name":"\u7acb\u65b9\u4f53.2054"
		},
		{
			"mesh":7,
			"name":"\u7acb\u65b9\u4f53.2154"
		},
		{
			"mesh":8,
			"name":"\u7acb\u65b9\u4f53.2445"
		},
		{
			"mesh":9,
			"name":"\u7acb\u65b9\u4f53.036"
		},
		{
			"mesh":10,
			"name":"\u7acb\u65b9\u4f53.001"
		},
		{
			"mesh":11,
			"name":"\u7acb\u65b9\u4f53.002"
		}
	],
	"materials":[
		{
			"doubleSided":true,
			"name":"Floor",
			"pbrMetallicRoughness":{
				"baseColorTexture":{
					"index":0
				},
				"metallicFactor":0,
				"roughnessFactor":0.5
			}
		},
		{
			"doubleSided":true,
			"name":"Door",
			"pbrMetallicRoughness":{
				"baseColorTexture":{
					"index":1
				},
				"metallicFactor":0,
				"roughnessFactor":0.5
			}
		},
		{
			"doubleSided":true,
			"name":"Wall",
			"pbrMetallicRoughness":{
				"baseColorTexture":{
					"index":2
				},
				"metallicFactor":0,
				"roughnessFactor":0.5
			}
		}
	],
	"meshes":[
		{
			"name":"\u7acb\u65b9\u4f53.674",
			"primitives":[
				{
					"attributes":{
						"POSITION":0,
						"NORMAL":1,
						"TEXCOORD_0":2
					},
					"indices":3,
					"material":0
				}
			]
		},
		{
			"name":"\u7acb\u65b9\u4f53.816",
			"primitives":[
				{
					"attributes":{
						"POSITION":4,
						"NORMAL":5,
						"TEXCOORD_0":6
					},
					"indices":7,
					"material":0
				}
			]
		},
		{
			"name":"\u7acb\u65b9\u4f53.1053",
			"primitives":[
				{
					"attributes":{
						"POSITION":8,
						"NORMAL":9,
						"TEXCOORD_0":10
					},
					"indices":11,
					"material":0
				}
			]
		},
		{
			"name":"\u7acb\u65b9\u4f53.1401",
			"primitives":[
				{
					"attributes":{
						"POSITION":12,
						"NORMAL":13,
						"TEXCOORD_0":14
					},
					"indices":15,
					"material":0
				}
			]
		},
		{
			"name":"\u7acb\u65b9\u4f53.1589",
			"primitives":[
				{
					"attributes":{
						"POSITION":16,
						"NORMAL":17,
						"TEXCOORD_0":18
					},
					"indices":19,
					"material":0
				}
			]
		},
		{
			"name":"\u7acb\u65b9\u4f53.1907",
			"primitives":[
				{
					"attributes":{
						"POSITION":20,
						"NORMAL":21,
						"TEXCOORD_0":22
					},
					"indices":23,
					"material":0
				}
			]
		},
		{
			"name":"\u7acb\u65b9\u4f53.2054",
			"primitives":[
				{
					"attributes":{
						"POSITION":24,
						"NORMAL":25,
						"TEXCOORD_0":26
					},
					"indices":27,
					"material":0
				}
			]
		},
		{
			"name":"\u7acb\u65b9\u4f53.2154",
			"primitives":[
				{
					"attributes":{
						"POSITION":28,
						"NORMAL":29,
						"TEXCOORD_0":30
					},
					"indices":31,
					"material":1
				}
			]
		},
		{
			"name":"\u7acb\u65b9\u4f53.2445",
			"primitives":[
				{
					"attributes":{
						"POSITION":32,
						"NORMAL":33,
						"TEXCOORD_0":34
					},
					"indices":35,
					"material":0
				}
			]
		},
		{
			"name":"\u7acb\u65b9\u4f53.2583",
			"primitives":[
				{
					"attributes":{
						"POSITION":36,
						"NORMAL":37,
						"TEXCOORD_0":38
					},
					"indices":39,
					"material":2
				}
			]
		},
		{
			"name":"\u7acb\u65b9\u4f53.001",
			"primitives":[
				{
					"attributes":{
						"POSITION":40,
						"NORMAL":41,
						"TEXCOORD_0":42
					},
					"indices":43,
					"material":0
				}
			]
		},
		{
			"name":"\u7acb\u65b9\u4f53.002",
			"primitives":[
				{
					"attributes":{
						"POSITION":44,
						"NORMAL":45,
						"TEXCOORD_0":46
					},
					"indices":47,
					"material":0
				}
			]
		}
	],
	"textures":[
		{
			"sampler":0,
			"source":0
		},
		{
			"sampler":0,
			"source":1
		},
		{
			"sampler":0,
			"source":2
		}
	],
	"images":[
		{
			"mimeType":"image/png",
			"name":"Floor",
			"uri":"Floor.png"
		},
		{
			"mimeType":"image/png",
			"name":"Door",
			"uri":"Door.png"
		},
		{
			"mimeType":"image/png",
			"name":"Wall",
			"uri":"Wall.png"
		}
	],
	"accessors":[
		{
			"bufferView":0,
			"componentType":5126,
			"count":24,
			"max":[
				252.5,
				5,
				-2.5
			],
			"min":[
				152.5,
				0,
				-62.5
			],
			"type":"VEC3"
		},
		{
			"bufferView":1,
			"componentType":5126,
			"count":24,
			"type":"VEC3"
		},
		{
			"bufferView":2,
			"componentType":5126,
			"count":24,
			"type":"VEC2"
		},
		{
			"bufferView":3,
			"componentType":5123,
			"count":36,
			"type":"SCALAR"
		},
		{
			"bufferView":4,
			"componentType":5126,
			"count":8,
			"max":[
				197.5,
				5,
				-67.5
			],
			"min":[
				152.5,
				0,
				-112.5
			],
			"type":"VEC3"
		},
		{
			"bufferView":5,
			"componentType":5126,
			"count":8,
			"type":"VEC3"
		},
		{
			"bufferView":6,
			"componentType":5126,
			"count":8,
			"type":"VEC2"
		},
		{
			"bufferView":7,
			"componentType":5123,
			"count":12,
			"type":"SCALAR"
		},
		{
			"bufferView":8,
			"componentType":5126,
			"count":40,
			"max":[
				147.5,
				5,
				-67.5
			],
			"min":[
				2.5,
				0,
				-132.5
			],
			"type":"VEC3"
		},
		{
			"bufferView":9,
			"componentType":5126,
			"count":40,
			"type":"VEC3"
		},
		{
			"bufferView":10,
			"componentType":5126,
			"count":40,
			"type":"VEC2"
		},
		{
			"bufferView":11,
			"componentType":5123,
			"count":78,
			"type":"SCALAR"
		},
		{
			"bufferView":12,
			"componentType":5126,
			"count":8,
			"max":[
				247.5,
				5,
				-92.5
			],
			"min":[
				217.5,
				0,
				-132.5
			],
			"type":"VEC3"
		},
		{
			"bufferView":13,
			"componentType":5126,
			"count":8,
			"type":"VEC3"
		},
		{
			"bufferView":14,
			"componentType":5126,
			"count":8,
			"type":"VEC2"
		},
		{
			"bufferView":15,
			"componentType":5123,
			"count":12,
			"type":"SCALAR"
		},
		{
			"bufferView":16,
			"componentType":5126,
			"count":18,
			"max":[
				252.5,
				5,
				-137.5
			],
			"min":[
				92.5,
				0,
				-212.5
			],
			"type":"VEC3"
		},
		{
			"bufferView":17,
			"componentType":5126,
			"count":18,
			"type":"VEC3"
		},
		{
			"bufferView":18,
			"componentType":5126,
			"count":18,
			"type":"VEC2"
		},
		{
			"bufferView":19,
			"componentType":5123,
			"count":42,
			"type":"SCALAR"
		},
		{
			"bufferView":20,
			"componentType":5126,
			"count":8,
			"max":[
				207.5,
				5,
				-177.5
			],
			"min":[
				152.5,
				0,
				-237.5
			],
			"type":"VEC3"
		},
		{
			"bufferView":21,
			"componentType":5126,
			"count":8,
			"type":"VEC3"
		},
		{
			"bufferView":22,
			"componentType":5126,
			"count":8,
			"type":"VEC2"
		},
		{
			"bufferView":23,
			"componentType":5123,
			"count":12,
			"type":"SCALAR"
		},
		{
			"bufferView":24,
			"componentType":5126,
			"count":8,
			"max":[
				147.5,
				5,
				-177.5
			],
			"min":[
				112.5,
				0,
				-237.5
			],
			"type":"VEC3"
		},
		{
			"bufferView":25,
			"componentType":5126,
			"count":8,
			"type":"VEC3"
		},
		{
			"bufferView":26,
			"componentType":5126,
			"count":8,
			"type":"VEC2"
		},
		{
			"bufferView":27,
			"componentType":5123,
			"count":12,
			"type":"SCALAR"
		},
		{
			"bufferView":28,
			"componentType":5126,
			"count":576,
			"max":[
				242.5,
				5,
				-32.5
			],
			"min":[
				87.5,
				0,
				-212.5
			],
			"type":"VEC3"
		},
		{
			"bufferView":29,
			"componentType":5126,
			"count":576,
			"type":"VEC3"
		},
		{
			"bufferView":30,
			"componentType":5126,
			"count":576,
			"type":"VEC2"
		},
		{
			"bufferView":31,
			"componentType":5123,
			"count":864,
			"type":"SCALAR"
		},
		{
			"bufferView":32,
			"componentType":5126,
			"count":44,
			"max":[
				107.5,
				5,
				-137.5
			],
			"min":[
				2.5,
				0,
				-237.5
			],
			"type":"VEC3"
		},
		{
			"bufferView":33,
			"componentType":5126,
			"count":44,
			"type":"VEC3"
		},
		{
			"bufferView":34,
			"componentType":5126,
			"count":44,
			"type":"VEC2"
		},
		{
			"bufferView":35,
			"componentType":5123,
			"count":84,
			"type":"SCALAR"
		},
		{
			"bufferView":36,
			"componentType":5126,
			"count":7888,
			"max":[
				257.5,
				15,
				2.5
			],
			"min":[
				-2.5,
				0,
				-242.5
			],
			"type":"VEC3"
		},
		{
			"bufferView":37,
			"componentType":5126,
			"count":7888,
			"type":"VEC3"
		},
		{
			"bufferView":38,
			"componentType":5126,
			"count":7888,
			"type":"VEC2"
		},
		{
			"bufferView":39,
			"componentType":5123,
			"count":11832,
			"type":"SCALAR"
		},
		{
			"bufferView":40,
			"componentType":5126,
			"count":24,
			"max":[
				147.5,
				5,
				-2.5
			],
			"min":[
				32.5,
				0,
				-62.5
			],
			"type":"VEC3"
		},
		{
			"bufferView":41,
			"componentType":5126,
			"count":24,
			"type":"VEC3"
		},
		{
			"bufferView":42,
			"componentType":5126,
			"count":24,
			"type":"VEC2"
		},
		{
			"bufferView":43,
			"componentType":5123,
			"count":36,
			"type":"SCALAR"
		},
		{
			"bufferView":44,
			"componentType":5126,
			"count":8,
			"max":[
				247.5,
				5,
				-67.5
			],
			"min":[
				217.5,
				0,
				-87.5
			],
			"type":"VEC3"
		},
		{
			"bufferView":45,
			"componentType":5126,
			"count":8,
			"type":"VEC3"
		},
		{
			"bufferView":46,
			"componentType":5126,
			"count":8,
			"type":"VEC2"
		},
		{
			"bufferView":47,
			"componentType":5123,
			"count":12,
			"type":"SCALAR"
		}
	],
	"bufferViews":[
		{
			"buffer":0,
			"byteLength":288,
			"byteOffset":0,
			"target":34962
		},
		{
			"buffer":0,
			"byteLength":288,
			"byteOffset":288,
			"target":34962
		},
		{
			"buffer":0,
			"byteLength":192,
			"byteOffset":576,
			"target":34962
		},
		{
			"buffer":0,
			"byteLength":72,
			"byteOffset":768,
			"target":34963
		},
		{
			"buffer":0,
			"byteLength":96,
			"byteOffset":840,
			"target":34962
		},
		{
			"buffer":0,
			"byteLength":96,
			"byteOffset":936,
			"target":34962
		},
		{
			"buffer":0,
			"byteLength":64,
			"byteOffset":1032,
			"target":34962
		},
		{
			"buffer":0,
			"byteLength":24,
			"byteOffset":1096,
			"target":34963
		},
		{
			"buffer":0,
			"byteLength":480,
			"byteOffset":1120,
			"target":34962
		},
		{
			"buffer":0,
			"byteLength":480,
			"byteOffset":1600,
			"target":34962
		},
		{
			"buffer":0,
			"byteLength":320,
			"byteOffset":2080,
			"target":34962
		},
		{
			"buffer":0,
			"byteLength":156,
			"byteOffset":2400,
			"target":34963
		},
		{
			"buffer":0,
			"byteLength":96,
			"byteOffset":2556,
			"target":34962
		},
		{
			"buffer":0,
			"byteLength":96,
			"byteOffset":2652,
			"target":34962
		},
		{
			"buffer":0,
			"byteLength":64,
			"byteOffset":2748,
			"target":34962
		},
		{
			"buffer":0,
			"byteLength":24,
			"byteOffset":2812,
			"target":34963
		},
		{
			"buffer":0,
			"byteLength":216,
			"byteOffset":2836,
			"target":34962
		},
		{
			"buffer":0,
			"byteLength":216,
			"byteOffset":3052,
			"target":34962
		},
		{
			"buffer":0,
			"byteLength":144,
			"byteOffset":3268,
			"target":34962
		},
		{
			"buffer":0,
			"byteLength":84,
			"byteOffset":3412,
			"target":34963
		},
		{
			"buffer":0,
			"byteLength":96,
			"byteOffset":3496,
			"target":34962
		},
		{
			"buffer":0,
			"byteLength":96,
			"byteOffset":3592,
			"target":34962
		},
		{
			"buffer":0,
			"byteLength":64,
			"byteOffset":3688,
			"target":34962
		},
		{
			"buffer":0,
			"byteLength":24,
			"byteOffset":3752,
			"target":34963
		},
		{
			"buffer":0,
			"byteLength":96,
			"byteOffset":3776,
			"target":34962
		},
		{
			"buffer":0,
			"byteLength":96,
			"byteOffset":3872,
			"target":34962
		},
		{
			"buffer":0,
			"byteLength":64,
			"byteOffset":3968,
			"target":34962
		},
		{
			"buffer":0,
			"byteLength":24,
			"byteOffset":4032,
			"target":34963
		},
		{
			"buffer":0,
			"byteLength":6912,
			"byteOffset":4056,
			"target":34962
		},
		{
			"buffer":0,
			"byteLength":6912,
			"byteOffset":10968,
			"target":34962
		},
		{
			"buffer":0,
			"byteLength":4608,
			"byteOffset":17880,
			"target":34962
		},
		{
			"buffer":0,
			"byteLength":1728,
			"byteOffset":22488,
			"target":34963
		},
		{
			"buffer":0,
			"byteLength":528,
			"byteOffset":24216,
			"target":34962
		},
		{
			"buffer":0,
			"byteLength":528,
			"byteOffset":24744,
			"target":34962
		},
		{
			"buffer":0,
			"byteLength":352,
			"byteOffset":25272,
			"target":34962
		},
		{
			"buffer":0,
			"byteLength":168,
			"byteOffset":25624,
			"target":34963
		},
		{
			"buffer":0,
			"byteLength":94656,
			"byteOffset":25792,
			"target":34962
		},
		{
			"buffer":0,
			"byteLength":94656,
			"byteOffset":120448,
			"target":34962
		},
		{
			"buffer":0,
			"byteLength":63104,
			"byteOffset":215104,
			"target":34962
		},
		{
			"buffer":0,
			"byteLength":23664,
			"byteOffset":278208,
			"target":34963
		},
		{
			"buffer":0,
			"byteLength":288,
			"byteOffset":301872,
			"target":34962
		},
		{
			"buffer":0,
			"byteLength":288,
			"byteOffset":302160,
			"target":34962
		},
		{
			"buffer":0,
			"byteLength":192,
			"byteOffset":302448,
			"target":34962
		},
		{
			"buffer":0,
			"byteLength":72,
			"byteOffset":302640,
			"target":34963
		},
		{
			"buffer":0,
			"byteLength":96,
			"byteOffset":302712,
			"target":34962
		},
		{
			"buffer":0,
			"byteLength":96,
			"byteOffset":302808,
			"target":34962
		},
		{
			"buffer":0,
			"byteLength":64,
			"byteOffset":302904,
			"target":34962
		},
		{
			"buffer":0,
			"byteLength":24,
			"byteOffset":302968,
			"target":34963
		}
	],
	"samplers":[
		{
			"magFilter":9729,
			"minFilter":9987
		}
	],
	"buffers":[
		{
			"byteLength":302992,
			"uri":"RoomModel.bin"
		}
	]
}
