# Blender 4.1.1
# www.blender.org
mtllib Ghost.mtl
o 円柱
v 0.640176 -1.000190 -0.695499
v -0.261694 0.851945 -0.136065
v 1.272533 -1.003808 -0.215663
v 0.337641 0.848297 0.000000
v 1.293688 -1.016693 0.131773
v 1.041662 -1.001033 0.490856
v 0.654030 -1.015014 0.655838
v -0.858644 -1.000465 0.605125
v -1.241167 -1.009353 0.272416
v -0.098382 0.844131 0.185051
v -1.181329 -1.002129 -0.358399
v -0.858644 -1.000465 -0.605125
v -0.141630 -0.998514 -0.809351
v 0.692786 -0.588283 -0.482286
v 1.077514 -1.013463 -0.433853
v 1.015553 -0.565432 0.153373
v 0.034180 -1.017552 0.754160
v -0.430013 -1.009779 0.728585
v -0.953880 -0.575788 0.266486
v -1.265818 -1.039061 -0.061476
v -0.838445 -0.587742 -0.390495
v 0.596595 0.650041 -0.173851
v 0.545917 0.653143 0.210988
v -0.213726 0.668311 0.384477
v -0.652441 0.649654 -0.000000
v -0.213726 0.668311 -0.384477
v -0.108653 -0.603718 -0.636650
vn 0.6385 0.7657 0.0779
vn 0.1500 0.7952 0.5874
vn -0.3359 0.8781 0.3407
vn -0.5256 0.6325 -0.5690
vn -0.3124 0.1598 -0.9364
vn -0.7593 0.2969 -0.5791
vn -0.8660 0.3000 0.3999
vn -0.5259 0.2354 0.8173
vn -0.0504 0.2068 0.9771
vn 0.1514 0.2329 0.9606
vn 0.6810 0.2296 0.6954
vn 0.9479 0.2934 -0.1238
vn 0.3890 0.2510 -0.8864
vn 0.1813 0.2056 -0.9617
vn 0.4885 0.3511 -0.7988
vn 0.7457 0.4354 0.5044
vn -0.6041 0.4096 0.6836
vn 0.1589 0.7869 -0.5962
vn -0.5568 0.4045 -0.7255
vn 0.3007 0.6224 0.7226
vn -0.5874 0.7447 0.3168
vn 0.0006 0.9997 0.0240
vn -0.6340 0.3100 0.7084
vn 0.2197 0.2646 0.9390
vn 0.9283 0.3521 0.1194
vn 0.2962 0.5960 0.7464
vn -0.2140 0.5792 0.7866
vn -0.8335 0.5524 0.0124
vn 0.1486 0.4139 -0.8981
vn -0.6325 0.3180 -0.7063
vn 0.2488 0.2522 -0.9351
vn 0.7145 0.6457 -0.2694
vn -0.2644 0.4312 -0.8627
vn -0.7681 0.6246 -0.1409
vt 0.431859 0.499483
vt 0.421277 0.484126
vt 0.444361 0.483844
vt 0.405997 0.523053
vt 0.435010 0.528387
vt 0.426511 0.549905
vt 0.454021 0.530381
vt 0.686030 0.585480
vt 0.521774 0.782273
vt 0.346590 0.999908
vt 0.281330 0.761577
vt 0.000092 0.594395
vt 0.002574 0.419704
vt 0.080868 0.179259
vt 0.408759 0.221834
vt 0.702023 0.103915
vt 0.661814 0.320722
vt 0.841969 0.295516
vt 0.237630 0.062643
vt 0.436529 0.000092
vt 0.069961 0.774888
vt 0.215663 0.946657
vt 0.651739 0.913418
vt 0.479905 0.989384
vt 0.421754 0.518122
vt 0.841969 0.644312
vt 0.593882 0.030311
s 0
usemtl マテリアル
f 4/1/1 23/2/1 22/3/1
f 4/1/2 24/4/2 23/2/2
f 24/4/3 2/5/3 25/6/3
f 2/5/4 26/7/4 25/6/4
f 26/7/5 27/8/5 21/9/5
f 25/6/6 21/9/6 20/10/6
f 19/11/7 25/6/7 20/10/7
f 18/12/8 24/4/8 19/11/8
f 17/13/9 24/4/9 18/12/9
f 24/4/10 17/13/10 7/14/10
f 23/2/11 7/14/11 16/15/11
f 15/16/12 22/3/12 16/15/12
f 14/17/13 22/3/13 15/16/13
f 27/8/14 26/7/14 14/17/14
f 1/18/15 14/17/15 15/16/15
f 16/15/16 6/19/16 5/20/16
f 8/21/17 19/11/17 9/22/17
f 4/1/18 22/3/18 26/7/18 2/5/18
f 21/9/19 12/23/19 11/24/19
f 4/1/20 10/25/20 24/4/20
f 24/4/21 10/25/21 2/5/21
f 10/25/22 4/1/22 2/5/22
f 19/11/23 24/4/23 25/6/23
f 23/2/24 24/4/24 7/14/24
f 22/3/25 23/2/25 16/15/25
f 16/15/26 7/14/26 6/19/26
f 8/21/27 18/12/27 19/11/27
f 9/22/28 19/11/28 20/10/28
f 14/17/29 1/18/29 13/26/29 27/8/29
f 25/6/30 26/7/30 21/9/30
f 14/17/31 26/7/31 22/3/31
f 16/15/32 5/20/32 3/27/32 15/16/32
f 13/26/33 12/23/33 21/9/33 27/8/33
f 20/10/34 21/9/34 11/24/34
