{
	"asset":{
		"generator":"Khronos glTF Blender I/O v4.1.63",
		"version":"2.0"
	},
	"scene":0,
	"scenes":[
		{
			"name":"Scene",
			"nodes":[
				0,
				1
			]
		}
	],
	"nodes":[
		{
			"mesh":0,
			"name":"warajiRope"
		},
		{
			"mesh":1,
			"name":"boy.029"
		}
	],
	"materials":[
		{
			"doubleSided":true,
			"name":"\u30de\u30c6\u30ea\u30a2\u30eb.002",
			"pbrMetallicRoughness":{
				"baseColorTexture":{
					"index":0
				},
				"metallicFactor":0,
				"roughnessFactor":0.5
			}
		},
		{
			"doubleSided":true,
			"name":"\u30de\u30c6\u30ea\u30a2\u30eb",
			"pbrMetallicRoughness":{
				"baseColorTexture":{
					"index":1
				},
				"metallicFactor":0,
				"roughnessFactor":0.5
			}
		}
	],
	"meshes":[
		{
			"name":"\u30d9\u30b8\u30a8\u30ab\u30fc\u30d6",
			"primitives":[
				{
					"attributes":{
						"POSITION":0,
						"NORMAL":1,
						"TEXCOORD_0":2
					},
					"indices":3,
					"material":0
				}
			]
		},
		{
			"name":"\u7acb\u65b9\u4f53.058",
			"primitives":[
				{
					"attributes":{
						"POSITION":4,
						"NORMAL":5,
						"TEXCOORD_0":6
					},
					"indices":7,
					"material":1
				}
			]
		}
	],
	"textures":[
		{
			"sampler":0,
			"source":0
		},
		{
			"sampler":0,
			"source":1
		}
	],
	"images":[
		{
			"mimeType":"image/png",
			"name":"warajiRope",
			"uri":"warajiRope.png"
		},
		{
			"mimeType":"image/png",
			"name":"Boy",
			"uri":"Boy.png"
		}
	],
	"accessors":[
		{
			"bufferView":0,
			"componentType":5126,
			"count":896,
			"max":[
				0.5738829374313354,
				0.5298744440078735,
				0.41685232520103455
			],
			"min":[
				-0.5738829374313354,
				0.04084328934550285,
				-0.5260130763053894
			],
			"type":"VEC3"
		},
		{
			"bufferView":1,
			"componentType":5126,
			"count":896,
			"type":"VEC3"
		},
		{
			"bufferView":2,
			"componentType":5126,
			"count":896,
			"type":"VEC2"
		},
		{
			"bufferView":3,
			"componentType":5123,
			"count":4320,
			"type":"SCALAR"
		},
		{
			"bufferView":4,
			"componentType":5126,
			"count":8818,
			"max":[
				2.264594316482544,
				4.635451793670654,
				1.2353601455688477
			],
			"min":[
				-2.264594316482544,
				0.03164419159293175,
				-1.5278764963150024
			],
			"type":"VEC3"
		},
		{
			"bufferView":5,
			"componentType":5126,
			"count":8818,
			"type":"VEC3"
		},
		{
			"bufferView":6,
			"componentType":5126,
			"count":8818,
			"type":"VEC2"
		},
		{
			"bufferView":7,
			"componentType":5123,
			"count":34329,
			"type":"SCALAR"
		}
	],
	"bufferViews":[
		{
			"buffer":0,
			"byteLength":10752,
			"byteOffset":0,
			"target":34962
		},
		{
			"buffer":0,
			"byteLength":10752,
			"byteOffset":10752,
			"target":34962
		},
		{
			"buffer":0,
			"byteLength":7168,
			"byteOffset":21504,
			"target":34962
		},
		{
			"buffer":0,
			"byteLength":8640,
			"byteOffset":28672,
			"target":34963
		},
		{
			"buffer":0,
			"byteLength":105816,
			"byteOffset":37312,
			"target":34962
		},
		{
			"buffer":0,
			"byteLength":105816,
			"byteOffset":143128,
			"target":34962
		},
		{
			"buffer":0,
			"byteLength":70544,
			"byteOffset":248944,
			"target":34962
		},
		{
			"buffer":0,
			"byteLength":68658,
			"byteOffset":319488,
			"target":34963
		}
	],
	"samplers":[
		{
			"magFilter":9729,
			"minFilter":9987
		}
	],
	"buffers":[
		{
			"byteLength":388148,
			"uri":"Boy.bin"
		}
	]
}
