{
	"asset":{
		"generator":"Khronos glTF Blender I/O v4.1.63",
		"version":"2.0"
	},
	"scene":0,
	"scenes":[
		{
			"name":"Scene",
			"nodes":[
				0
			]
		}
	],
	"nodes":[
		{
			"mesh":0,
			"name":"Boss"
		}
	],
	"meshes":[
		{
			"name":"\u7acb\u65b9\u4f53.026",
			"primitives":[
				{
					"attributes":{
						"POSITION":0,
						"NORMAL":1,
						"TEXCOORD_0":2
					},
					"indices":3
				}
			]
		}
	],
	"accessors":[
		{
			"bufferView":0,
			"componentType":5126,
			"count":608,
			"max":[
				7.481618881225586,
				12.214964866638184,
				1.8480205535888672
			],
			"min":[
				-7.418642044067383,
				-0.07301127910614014,
				-3.2073287963867188
			],
			"type":"VEC3"
		},
		{
			"bufferView":1,
			"componentType":5126,
			"count":608,
			"type":"VEC3"
		},
		{
			"bufferView":2,
			"componentType":5126,
			"count":608,
			"type":"VEC2"
		},
		{
			"bufferView":3,
			"componentType":5123,
			"count":984,
			"type":"SCALAR"
		}
	],
	"bufferViews":[
		{
			"buffer":0,
			"byteLength":7296,
			"byteOffset":0,
			"target":34962
		},
		{
			"buffer":0,
			"byteLength":7296,
			"byteOffset":7296,
			"target":34962
		},
		{
			"buffer":0,
			"byteLength":4864,
			"byteOffset":14592,
			"target":34962
		},
		{
			"buffer":0,
			"byteLength":1968,
			"byteOffset":19456,
			"target":34963
		}
	],
	"buffers":[
		{
			"byteLength":21424,
			"uri":"TsukumoBoss.bin"
		}
	]
}
