{
	"asset":{
		"generator":"Khronos glTF Blender I/O v4.1.63",
		"version":"2.0"
	},
	"scene":0,
	"scenes":[
		{
			"name":"Scene",
			"nodes":[
				0,
				3
			]
		}
	],
	"nodes":[
		{
			"mesh":0,
			"name":"\u5186\u67f1"
		},
		{
			"name":"\u30dc\u30fc\u30f3"
		},
		{
			"mesh":1,
			"name":"\u5186\u67f1.001",
			"skin":0
		},
		{
			"children":[
				2,
				1
			],
			"name":"\u30a2\u30fc\u30de\u30c1\u30e5\u30a2",
			"scale":[
				0.48657768964767456,
				0.48657768964767456,
				0.48657768964767456
			],
			"translation":[
				0,
				0.5180277824401855,
				0
			]
		}
	],
	"animations":[
		{
			"channels":[
				{
					"sampler":0,
					"target":{
						"node":1,
						"path":"translation"
					}
				},
				{
					"sampler":1,
					"target":{
						"node":1,
						"path":"rotation"
					}
				},
				{
					"sampler":2,
					"target":{
						"node":1,
						"path":"scale"
					}
				}
			],
			"name":"off",
			"samplers":[
				{
					"input":11,
					"interpolation":"LINEAR",
					"output":12
				},
				{
					"input":11,
					"interpolation":"LINEAR",
					"output":13
				},
				{
					"input":11,
					"interpolation":"LINEAR",
					"output":14
				}
			]
		},
		{
			"channels":[
				{
					"sampler":0,
					"target":{
						"node":1,
						"path":"translation"
					}
				},
				{
					"sampler":1,
					"target":{
						"node":1,
						"path":"rotation"
					}
				},
				{
					"sampler":2,
					"target":{
						"node":1,
						"path":"scale"
					}
				}
			],
			"name":"on",
			"samplers":[
				{
					"input":11,
					"interpolation":"LINEAR",
					"output":15
				},
				{
					"input":11,
					"interpolation":"LINEAR",
					"output":16
				},
				{
					"input":11,
					"interpolation":"LINEAR",
					"output":17
				}
			]
		}
	],
	"materials":[
		{
			"doubleSided":true,
			"name":"\u30de\u30c6\u30ea\u30a2\u30eb",
			"pbrMetallicRoughness":{
				"baseColorTexture":{
					"index":0
				},
				"metallicFactor":0,
				"roughnessFactor":0.5
			}
		}
	],
	"meshes":[
		{
			"name":"\u5186\u67f1",
			"primitives":[
				{
					"attributes":{
						"POSITION":0,
						"NORMAL":1,
						"TEXCOORD_0":2
					},
					"indices":3,
					"material":0
				}
			]
		},
		{
			"name":"\u5186\u67f1.001",
			"primitives":[
				{
					"attributes":{
						"POSITION":4,
						"NORMAL":5,
						"TEXCOORD_0":6,
						"JOINTS_0":7,
						"WEIGHTS_0":8
					},
					"indices":9,
					"material":0
				}
			]
		}
	],
	"textures":[
		{
			"sampler":0,
			"source":0
		}
	],
	"images":[
		{
			"mimeType":"image/png",
			"name":"switch",
			"uri":"switch.png"
		}
	],
	"skins":[
		{
			"inverseBindMatrices":10,
			"joints":[
				1
			],
			"name":"\u30a2\u30fc\u30de\u30c1\u30e5\u30a2"
		}
	],
	"accessors":[
		{
			"bufferView":0,
			"componentType":5126,
			"count":290,
			"max":[
				0.764673113822937,
				0.5895184278488159,
				0.764673113822937
			],
			"min":[
				-0.764673113822937,
				-0.018457919359207153,
				-0.764673113822937
			],
			"type":"VEC3"
		},
		{
			"bufferView":1,
			"componentType":5126,
			"count":290,
			"type":"VEC3"
		},
		{
			"bufferView":2,
			"componentType":5126,
			"count":290,
			"type":"VEC2"
		},
		{
			"bufferView":3,
			"componentType":5123,
			"count":948,
			"type":"SCALAR"
		},
		{
			"bufferView":4,
			"componentType":5126,
			"count":658,
			"max":[
				0.5520617961883545,
				1.2158174514770508,
				0.5520617961883545
			],
			"min":[
				-0.5520617961883545,
				0.47594934701919556,
				-0.5520617961883545
			],
			"type":"VEC3"
		},
		{
			"bufferView":5,
			"componentType":5126,
			"count":658,
			"type":"VEC3"
		},
		{
			"bufferView":6,
			"componentType":5126,
			"count":658,
			"type":"VEC2"
		},
		{
			"bufferView":7,
			"componentType":5121,
			"count":658,
			"type":"VEC4"
		},
		{
			"bufferView":8,
			"componentType":5126,
			"count":658,
			"type":"VEC4"
		},
		{
			"bufferView":9,
			"componentType":5123,
			"count":2292,
			"type":"SCALAR"
		},
		{
			"bufferView":10,
			"componentType":5126,
			"count":1,
			"type":"MAT4"
		},
		{
			"bufferView":11,
			"componentType":5126,
			"count":1,
			"max":[
				0
			],
			"min":[
				0
			],
			"type":"SCALAR"
		},
		{
			"bufferView":12,
			"componentType":5126,
			"count":1,
			"type":"VEC3"
		},
		{
			"bufferView":13,
			"componentType":5126,
			"count":1,
			"type":"VEC4"
		},
		{
			"bufferView":14,
			"componentType":5126,
			"count":1,
			"type":"VEC3"
		},
		{
			"bufferView":15,
			"componentType":5126,
			"count":1,
			"type":"VEC3"
		},
		{
			"bufferView":16,
			"componentType":5126,
			"count":1,
			"type":"VEC4"
		},
		{
			"bufferView":17,
			"componentType":5126,
			"count":1,
			"type":"VEC3"
		}
	],
	"bufferViews":[
		{
			"buffer":0,
			"byteLength":3480,
			"byteOffset":0,
			"target":34962
		},
		{
			"buffer":0,
			"byteLength":3480,
			"byteOffset":3480,
			"target":34962
		},
		{
			"buffer":0,
			"byteLength":2320,
			"byteOffset":6960,
			"target":34962
		},
		{
			"buffer":0,
			"byteLength":1896,
			"byteOffset":9280,
			"target":34963
		},
		{
			"buffer":0,
			"byteLength":7896,
			"byteOffset":11176,
			"target":34962
		},
		{
			"buffer":0,
			"byteLength":7896,
			"byteOffset":19072,
			"target":34962
		},
		{
			"buffer":0,
			"byteLength":5264,
			"byteOffset":26968,
			"target":34962
		},
		{
			"buffer":0,
			"byteLength":2632,
			"byteOffset":32232,
			"target":34962
		},
		{
			"buffer":0,
			"byteLength":10528,
			"byteOffset":34864,
			"target":34962
		},
		{
			"buffer":0,
			"byteLength":4584,
			"byteOffset":45392,
			"target":34963
		},
		{
			"buffer":0,
			"byteLength":64,
			"byteOffset":49976
		},
		{
			"buffer":0,
			"byteLength":4,
			"byteOffset":50040
		},
		{
			"buffer":0,
			"byteLength":12,
			"byteOffset":50044
		},
		{
			"buffer":0,
			"byteLength":16,
			"byteOffset":50056
		},
		{
			"buffer":0,
			"byteLength":12,
			"byteOffset":50072
		},
		{
			"buffer":0,
			"byteLength":12,
			"byteOffset":50084
		},
		{
			"buffer":0,
			"byteLength":16,
			"byteOffset":50096
		},
		{
			"buffer":0,
			"byteLength":12,
			"byteOffset":50112
		}
	],
	"samplers":[
		{
			"magFilter":9729,
			"minFilter":9987
		}
	],
	"buffers":[
		{
			"byteLength":50124,
			"uri":"switch.bin"
		}
	]
}
